<?xml version="1.0" encoding="UTF-8" standalone="no"?>
<svg
   xmlns:dc="http://purl.org/dc/elements/1.1/"
   xmlns:cc="http://creativecommons.org/ns#"
   xmlns:rdf="http://www.w3.org/1999/02/22-rdf-syntax-ns#"
   xmlns:svg="http://www.w3.org/2000/svg"
   xmlns="http://www.w3.org/2000/svg"
   xmlns:xlink="http://www.w3.org/1999/xlink"
   xmlns:sodipodi="http://sodipodi.sourceforge.net/DTD/sodipodi-0.dtd"
   xmlns:inkscape="http://www.inkscape.org/namespaces/inkscape"
   id="svg2"
   height="19"
   width="114"
   version="1.1"
   inkscape:version="0.48.4 r9939"
   sodipodi:docname="anim_sprites.svg"
   inkscape:export-filename="/home/stuart/Projects/stuartpb/rejig/rejig-38.png"
   inkscape:export-xdpi="180"
   inkscape:export-ydpi="180">
  <metadata
     id="metadata9">
    <rdf:RDF>
      <cc:Work
         rdf:about="">
        <dc:format>image/svg+xml</dc:format>
        <dc:type
           rdf:resource="http://purl.org/dc/dcmitype/StillImage" />
      </cc:Work>
    </rdf:RDF>
  </metadata>
  <defs
     id="defs72">
    <clipPath
       clipPathUnits="userSpaceOnUse"
       id="clipPath3027">
      <path
         sodipodi:type="arc"
         style="fill:#000000;fill-opacity:1;stroke:none"
         id="path3029"
         sodipodi:cx="9.5"
         sodipodi:cy="9.5"
         sodipodi:rx="9.5"
         sodipodi:ry="9.5"
         d="M 0.24959878,11.663349 A 9.5,9.5 0 1 1 18.772386,11.567089 L 9.5,9.5 z"
         sodipodi:start="2.9118562"
         sodipodi:end="6.5025282" />
    </clipPath>
  </defs>
  <sodipodi:namedview
     pagecolor="#ffffff"
     bordercolor="#666666"
     borderopacity="1"
     objecttolerance="10"
     gridtolerance="10"
     guidetolerance="10"
     inkscape:pageopacity="0"
     inkscape:pageshadow="2"
     inkscape:window-width="1680"
     inkscape:window-height="998"
     id="namedview70"
     showgrid="false"
     fit-margin-top="0"
     fit-margin-left="0"
     fit-margin-right="0"
     fit-margin-bottom="0"
     inkscape:snap-page="true"
     inkscape:snap-bbox="true"
     showborder="true"
     inkscape:showpageshadow="false"
     inkscape:zoom="4"
     inkscape:cx="23.787938"
     inkscape:cy="-34.833181"
     inkscape:window-x="-2"
     inkscape:window-y="-3"
     inkscape:window-maximized="1"
     inkscape:current-layer="svg2"
     inkscape:snap-center="true"
     inkscape:snap-object-midpoints="false"
     inkscape:snap-bbox-midpoints="true"
     inkscape:bbox-paths="false" />
  <path
     d="m 15.695199,3.1589006 -2.080544,1.653035 C 12.52046,3.8943757 11.115265,3.3370179 9.5890017,3.3370179 c -3.449485,0 -6.2842691,2.8350121 -6.2842691,6.2842692 0,3.4494859 2.8350121,6.2201999 6.2842691,6.2201999 2.7041373,0 5.0279623,-1.699685 5.9066933,-4.097018 l -2.251548,-0.548626 c -0.602548,1.420904 -1.998873,2.401119 -3.6551453,2.401119 -2.2171417,0 -3.9759482,-1.758692 -3.9759482,-3.9759483 0,-2.2171421 1.7586925,-4.0400178 3.9759482,-4.0400178 0.8226183,0 1.5784773,0.2547041 2.2087963,0.6840144 L 9.7386413,7.903795 15.695267,9.0082049 v -5.849692 z"
     style="text-indent:0;text-transform:none;block-progression:tb;color:#000000;fill:#008000;stroke:#004000;stroke-width:0.44251913;stroke-miterlimit:4;stroke-opacity:1;stroke-dasharray:none"
     id="path3768"
     inkscape:connector-curvature="0" />
  <path
     style="fill:#dbe2e3;fill-opacity:1;fill-rule:evenodd;stroke:#586c70;stroke-width:0.44173506;stroke-miterlimit:4;stroke-opacity:1;stroke-dasharray:none"
     inkscape:connector-curvature="0"
     d="m 8.3161708,1.2208676 c 0.3858826,0 0.7744827,0.048942 0.9674238,0.1441083 0.3858822,0.1930509 0.7690474,0.5764333 0.9592714,0.959816 0.19294,0.3861017 0.19294,0.5845905 0,0.9706921 -0.190224,0.3833827 -0.9592714,0.7667652 -0.9592714,0.959816 0,0.3833826 0.5761059,0.959816 0.9592714,0.959816 h 3.847953 v 3.858297 c 0,0.3833825 0.58426,0.959815 0.967425,0.959815 0.192939,0 0.576104,-0.7694828 0.95927,-0.959815 0.385882,-0.1930507 0.584258,-0.1930507 0.970141,0 0.383166,0.1903322 0.76633,0.573714 0.959271,0.959815 0.192942,0.383383 0.192942,1.541688 0,1.92779 -0.192941,0.386101 -0.576105,0.766765 -0.959271,0.959817 -0.385883,0.19305 -0.584259,0.19305 -0.970141,0 -0.383166,-0.193052 -0.766331,-0.959817 -0.95927,-0.959817 -0.383165,0 -0.967425,0.576434 -0.967425,0.959817 v 3.858297 h -3.847953 c -0.3831655,0 -0.9592714,-0.573714 -0.9592714,-0.959818 0,-0.19305 0.7690474,-0.58459 0.9592714,-0.967972 0.19294,-0.386102 0.19294,-0.576432 0,-0.959817 -0.190224,-0.386099 -0.5733892,-0.77764 -0.9592714,-0.97069 -0.383165,-0.193052 -1.5408123,-0.193052 -1.9266947,0 -0.3858823,0.19305 -0.7744823,0.584591 -0.9674233,0.97069 -0.1929412,0.383385 -0.1929412,0.573715 0,0.959817 0.192941,0.383382 0.9674233,0.774922 0.9674233,0.967972 0,0.386104 -0.5842586,0.959818 -0.9674233,0.959818 H 2.5415224 v -3.858297 c 0,-0.0083 -0.00815,-0.01632 -0.00815,-0.02446 0.024457,-0.386101 0.5896936,-0.935345 0.9674234,-0.935345 0.1929412,0 0.576106,0.766766 0.9592711,0.959816 0.3858823,0.193051 0.5842584,0.193051 0.9701409,0 0.383165,-0.19305 0.7663299,-0.573714 0.9592712,-0.959816 0.192941,-0.386101 0.192941,-1.544406 0,-1.927789 C 6.1965328,9.647131 5.8133679,9.2637498 5.4302029,9.0734176 5.0443205,8.8803669 4.8459444,8.8803669 4.4600621,9.0734176 4.076897,9.2637498 3.6937322,10.033233 3.500791,10.033233 c -0.3777299,0 -0.9456837,-0.5492415 -0.9674235,-0.9353444 0,-0.00812 0.00815,-0.016313 0.00815,-0.02447 V 5.215116 h 3.8479543 c 0.3831646,0 0.9674234,-0.5764334 0.9674234,-0.959816 0,-0.1930508 -0.7744824,-0.5764333 -0.9674234,-0.959816 -0.1929412,-0.3861016 -0.1929412,-0.5845904 0,-0.9706921 C 6.5824176,1.9414092 6.9710176,1.5580268 7.3568999,1.3649759 7.5498412,1.2698101 7.9302886,1.2208676 8.3161708,1.2208676 z"
     id="path3148" />
  <use
     x="0"
     y="0"
     xlink:href="#path3768"
     id="use2991"
     width="19"
     height="19"
     clip-path="url(#clipPath3027)" />
  <path
     inkscape:connector-curvature="0"
     id="path4995"
     style="text-indent:0;text-transform:none;block-progression:tb;color:#000000;fill:#008000;stroke:#004000;stroke-width:0.44251913;stroke-miterlimit:4;stroke-opacity:1;stroke-dasharray:none"
     d="m 15.695199,22.158901 -2.080544,1.653035 c -1.094195,-0.91756 -2.49939,-1.474918 -4.0256533,-1.474918 -3.449485,0 -6.2842691,2.835012 -6.2842691,6.284269 0,3.449486 2.8350121,6.2202 6.2842691,6.2202 2.7041373,0 5.0279623,-1.699685 5.9066933,-4.097018 l -2.251548,-0.548626 c -0.602548,1.420904 -1.998873,2.401119 -3.6551453,2.401119 -2.2171417,0 -3.9759482,-1.758692 -3.9759482,-3.975948 0,-2.217142 1.7586925,-4.040018 3.9759482,-4.040018 0.8226183,0 1.5784773,0.254704 2.2087963,0.684014 l -2.0591567,1.638785 5.9566257,1.10441 v -5.849692 z" />
  <path
     id="path4997"
     d="m 8.3161708,20.220868 c 0.3858826,0 0.7744827,0.04894 0.9674238,0.144108 0.3858822,0.193051 0.7690474,0.576433 0.9592714,0.959816 0.19294,0.386102 0.19294,0.58459 0,0.970692 -0.190224,0.383383 -0.9592714,0.766765 -0.9592714,0.959816 0,0.383383 0.5761059,0.959816 0.9592714,0.959816 h 3.847953 v 3.858297 c 0,0.383382 0.58426,0.959815 0.967425,0.959815 0.192939,0 0.576104,-0.769483 0.95927,-0.959815 0.385882,-0.193051 0.584258,-0.193051 0.970141,0 0.383166,0.190332 0.76633,0.573714 0.959271,0.959815 0.192942,0.383383 0.192942,1.541688 0,1.92779 -0.192941,0.386101 -0.576105,0.766765 -0.959271,0.959817 -0.385883,0.19305 -0.584259,0.19305 -0.970141,0 -0.383166,-0.193052 -0.766331,-0.959817 -0.95927,-0.959817 -0.383165,0 -0.967425,0.576434 -0.967425,0.959817 v 3.858297 h -3.847953 c -0.3831655,0 -0.9592714,-0.573714 -0.9592714,-0.959818 0,-0.19305 0.7690474,-0.58459 0.9592714,-0.967972 0.19294,-0.386102 0.19294,-0.576432 0,-0.959817 -0.190224,-0.386099 -0.5733892,-0.77764 -0.9592714,-0.97069 -0.383165,-0.193052 -1.5408123,-0.193052 -1.9266947,0 -0.3858823,0.19305 -0.7744823,0.584591 -0.9674233,0.97069 -0.1929412,0.383385 -0.1929412,0.573715 0,0.959817 0.192941,0.383382 0.9674233,0.774922 0.9674233,0.967972 0,0.386104 -0.5842586,0.959818 -0.9674233,0.959818 H 2.5415224 v -3.858297 c 0,-0.0083 -0.00815,-0.01632 -0.00815,-0.02446 0.024457,-0.386101 0.5896936,-0.935345 0.9674234,-0.935345 0.1929412,0 0.576106,0.766766 0.9592711,0.959816 0.3858823,0.193051 0.5842584,0.193051 0.9701409,0 0.383165,-0.19305 0.7663299,-0.573714 0.9592712,-0.959816 0.192941,-0.386101 0.192941,-1.544406 0,-1.927789 -0.1929462,-0.38611 -0.5761111,-0.769491 -0.9592761,-0.959823 -0.3858824,-0.193051 -0.5842585,-0.193051 -0.9701408,0 -0.3831651,0.190332 -0.7663299,0.959815 -0.9592711,0.959815 -0.3777299,0 -0.9456837,-0.549242 -0.9674235,-0.935344 0,-0.0081 0.00815,-0.01631 0.00815,-0.02447 v -3.858303 h 3.8479543 c 0.3831646,0 0.9674234,-0.576433 0.9674234,-0.959816 0,-0.193051 -0.7744824,-0.576433 -0.9674234,-0.959816 -0.1929412,-0.386102 -0.1929412,-0.58459 0,-0.970692 0.1929458,-0.383383 0.5815458,-0.766765 0.9674281,-0.959816 0.1929413,-0.09517 0.5733887,-0.144108 0.9592709,-0.144108 z"
     inkscape:connector-curvature="0"
     style="opacity:0.76000001;fill:#dbe2e3;fill-opacity:1;fill-rule:evenodd;stroke:#586c70;stroke-width:0.44173506;stroke-miterlimit:4;stroke-opacity:1;stroke-dasharray:none" />
  <use
     clip-path="url(#clipPath3027)"
     height="19"
     width="19"
     id="use4999"
     xlink:href="#path3768"
     y="0"
     x="0"
     transform="translate(0,19)" />
  <path
     inkscape:connector-curvature="0"
     id="path4987"
     style="text-indent:0;text-transform:none;block-progression:tb;color:#000000;fill:#008000;stroke:#004000;stroke-width:0.44251913;stroke-miterlimit:4;stroke-opacity:1;stroke-dasharray:none"
     d="m 15.695199,41.158901 -2.080544,1.653035 c -1.094195,-0.91756 -2.49939,-1.474918 -4.0256533,-1.474918 -3.449485,0 -6.2842691,2.835012 -6.2842691,6.284269 0,3.449486 2.8350121,6.2202 6.2842691,6.2202 2.7041373,0 5.0279623,-1.699685 5.9066933,-4.097018 l -2.251548,-0.548626 c -0.602548,1.420904 -1.998873,2.401119 -3.6551453,2.401119 -2.2171417,0 -3.9759482,-1.758692 -3.9759482,-3.975948 0,-2.217142 1.7586925,-4.040018 3.9759482,-4.040018 0.8226183,0 1.5784773,0.254704 2.2087963,0.684014 l -2.0591567,1.638785 5.9566257,1.10441 v -5.849692 z" />
  <path
     id="path4989"
     d="m 8.3161708,39.220868 c 0.3858826,0 0.7744827,0.04894 0.9674238,0.144108 0.3858822,0.193051 0.7690474,0.576433 0.9592714,0.959816 0.19294,0.386102 0.19294,0.58459 0,0.970692 -0.190224,0.383383 -0.9592714,0.766765 -0.9592714,0.959816 0,0.383383 0.5761059,0.959816 0.9592714,0.959816 h 3.847953 v 3.858297 c 0,0.383382 0.58426,0.959815 0.967425,0.959815 0.192939,0 0.576104,-0.769483 0.95927,-0.959815 0.385882,-0.193051 0.584258,-0.193051 0.970141,0 0.383166,0.190332 0.76633,0.573714 0.959271,0.959815 0.192942,0.383383 0.192942,1.541688 0,1.92779 -0.192941,0.386101 -0.576105,0.766765 -0.959271,0.959817 -0.385883,0.19305 -0.584259,0.19305 -0.970141,0 -0.383166,-0.193052 -0.766331,-0.959817 -0.95927,-0.959817 -0.383165,0 -0.967425,0.576434 -0.967425,0.959817 v 3.858297 h -3.847953 c -0.3831655,0 -0.9592714,-0.573714 -0.9592714,-0.959818 0,-0.19305 0.7690474,-0.58459 0.9592714,-0.967972 0.19294,-0.386102 0.19294,-0.576432 0,-0.959817 -0.190224,-0.386099 -0.5733892,-0.77764 -0.9592714,-0.97069 -0.383165,-0.193052 -1.5408123,-0.193052 -1.9266947,0 -0.3858823,0.19305 -0.7744823,0.584591 -0.9674233,0.97069 -0.1929412,0.383385 -0.1929412,0.573715 0,0.959817 0.192941,0.383382 0.9674233,0.774922 0.9674233,0.967972 0,0.386104 -0.5842586,0.959818 -0.9674233,0.959818 H 2.5415224 v -3.858297 c 0,-0.0083 -0.00815,-0.01632 -0.00815,-0.02446 0.024457,-0.386101 0.5896936,-0.935345 0.9674234,-0.935345 0.1929412,0 0.576106,0.766766 0.9592711,0.959816 0.3858823,0.193051 0.5842584,0.193051 0.9701409,0 0.383165,-0.19305 0.7663299,-0.573714 0.9592712,-0.959816 0.192941,-0.386101 0.192941,-1.544406 0,-1.927789 -0.1929462,-0.38611 -0.5761111,-0.769491 -0.9592761,-0.959823 -0.3858824,-0.193051 -0.5842585,-0.193051 -0.9701408,0 -0.3831651,0.190332 -0.7663299,0.959815 -0.9592711,0.959815 -0.3777299,0 -0.9456837,-0.549241 -0.9674235,-0.935344 0,-0.0081 0.00815,-0.01631 0.00815,-0.02447 v -3.858303 h 3.8479543 c 0.3831646,0 0.9674234,-0.576433 0.9674234,-0.959816 0,-0.193051 -0.7744824,-0.576433 -0.9674234,-0.959816 -0.1929412,-0.386102 -0.1929412,-0.58459 0,-0.970692 0.1929458,-0.383383 0.5815458,-0.766765 0.9674281,-0.959816 0.1929413,-0.09517 0.5733887,-0.144108 0.9592709,-0.144108 z"
     inkscape:connector-curvature="0"
     style="opacity:0.51999996;fill:#dbe2e3;fill-opacity:1;fill-rule:evenodd;stroke:#586c70;stroke-width:0.44173506;stroke-miterlimit:4;stroke-opacity:1;stroke-dasharray:none" />
  <use
     clip-path="url(#clipPath3027)"
     height="19"
     width="19"
     id="use4991"
     xlink:href="#path3768"
     y="0"
     x="0"
     transform="translate(0,38)" />
  <path
     inkscape:connector-curvature="0"
     id="path4979"
     style="text-indent:0;text-transform:none;block-progression:tb;color:#000000;fill:#008000;stroke:#004000;stroke-width:0.44251913;stroke-miterlimit:4;stroke-opacity:1;stroke-dasharray:none"
     d="m 15.695199,60.158901 -2.080544,1.653035 c -1.094195,-0.91756 -2.49939,-1.474918 -4.0256533,-1.474918 -3.449485,0 -6.2842691,2.835012 -6.2842691,6.284269 0,3.449486 2.8350121,6.2202 6.2842691,6.2202 2.7041373,0 5.0279623,-1.699685 5.9066933,-4.097018 l -2.251548,-0.548626 c -0.602548,1.420904 -1.998873,2.401119 -3.6551453,2.401119 -2.2171417,0 -3.9759482,-1.758692 -3.9759482,-3.975948 0,-2.217142 1.7586925,-4.040018 3.9759482,-4.040018 0.8226183,0 1.5784773,0.254704 2.2087963,0.684014 l -2.0591567,1.638785 5.9566257,1.10441 v -5.849692 z" />
  <path
     id="path4981"
     d="m 8.3161708,58.220868 c 0.3858826,0 0.7744827,0.04894 0.9674238,0.144108 0.3858822,0.193051 0.7690474,0.576433 0.9592714,0.959816 0.19294,0.386102 0.19294,0.58459 0,0.970692 -0.190224,0.383383 -0.9592714,0.766765 -0.9592714,0.959816 0,0.383383 0.5761059,0.959816 0.9592714,0.959816 h 3.847953 v 3.858297 c 0,0.383382 0.58426,0.959815 0.967425,0.959815 0.192939,0 0.576104,-0.769483 0.95927,-0.959815 0.385882,-0.193051 0.584258,-0.193051 0.970141,0 0.383166,0.190332 0.76633,0.573714 0.959271,0.959815 0.192942,0.383383 0.192942,1.541688 0,1.92779 -0.192941,0.386101 -0.576105,0.766765 -0.959271,0.959817 -0.385883,0.19305 -0.584259,0.19305 -0.970141,0 -0.383166,-0.193052 -0.766331,-0.959817 -0.95927,-0.959817 -0.383165,0 -0.967425,0.576434 -0.967425,0.959817 v 3.858297 h -3.847953 c -0.3831655,0 -0.9592714,-0.573714 -0.9592714,-0.959818 0,-0.19305 0.7690474,-0.58459 0.9592714,-0.967972 0.19294,-0.386102 0.19294,-0.576432 0,-0.959817 -0.190224,-0.386099 -0.5733892,-0.77764 -0.9592714,-0.97069 -0.383165,-0.193052 -1.5408123,-0.193052 -1.9266947,0 -0.3858823,0.19305 -0.7744823,0.584591 -0.9674233,0.97069 -0.1929412,0.383385 -0.1929412,0.573715 0,0.959817 0.192941,0.383382 0.9674233,0.774922 0.9674233,0.967972 0,0.386104 -0.5842586,0.959818 -0.9674233,0.959818 H 2.5415224 v -3.858297 c 0,-0.0083 -0.00815,-0.01632 -0.00815,-0.02446 0.024457,-0.386101 0.5896936,-0.935345 0.9674234,-0.935345 0.1929412,0 0.576106,0.766766 0.9592711,0.959816 0.3858823,0.193051 0.5842584,0.193051 0.9701409,0 0.383165,-0.19305 0.7663299,-0.573714 0.9592712,-0.959816 0.192941,-0.386101 0.192941,-1.544406 0,-1.927789 -0.1929462,-0.38611 -0.5761111,-0.769491 -0.9592761,-0.959823 -0.3858824,-0.193051 -0.5842585,-0.193051 -0.9701408,0 -0.3831651,0.190332 -0.7663299,0.959815 -0.9592711,0.959815 -0.3777299,0 -0.9456837,-0.549241 -0.9674235,-0.935344 0,-0.0081 0.00815,-0.01631 0.00815,-0.02447 v -3.858303 h 3.8479543 c 0.3831646,0 0.9674234,-0.576433 0.9674234,-0.959816 0,-0.193051 -0.7744824,-0.576433 -0.9674234,-0.959816 -0.1929412,-0.386102 -0.1929412,-0.58459 0,-0.970692 0.1929458,-0.383383 0.5815458,-0.766765 0.9674281,-0.959816 0.1929413,-0.09517 0.5733887,-0.144108 0.9592709,-0.144108 z"
     inkscape:connector-curvature="0"
     style="opacity:0.28000004;fill:#dbe2e3;fill-opacity:1;fill-rule:evenodd;stroke:#586c70;stroke-width:0.44173506;stroke-miterlimit:4;stroke-opacity:1;stroke-dasharray:none" />
  <use
     clip-path="url(#clipPath3027)"
     height="19"
     width="19"
     id="use4983"
     xlink:href="#path3768"
     y="0"
     x="0"
     transform="translate(0,57)" />
  <path
     inkscape:connector-curvature="0"
     id="path4971"
     style="text-indent:0;text-transform:none;block-progression:tb;color:#000000;fill:#008000;stroke:#004000;stroke-width:0.44251913;stroke-miterlimit:4;stroke-opacity:1;stroke-dasharray:none"
     d="m 15.695199,79.158901 -2.080544,1.653035 c -1.094195,-0.91756 -2.49939,-1.474918 -4.0256533,-1.474918 -3.449485,0 -6.2842691,2.835012 -6.2842691,6.284269 0,3.449486 2.8350121,6.2202 6.2842691,6.2202 2.7041373,0 5.0279623,-1.699685 5.9066933,-4.097018 l -2.251548,-0.548626 c -0.602548,1.420904 -1.998873,2.401119 -3.6551453,2.401119 -2.2171417,0 -3.9759482,-1.758692 -3.9759482,-3.975948 0,-2.217142 1.7586925,-4.040018 3.9759482,-4.040018 0.8226183,0 1.5784773,0.254704 2.2087963,0.684014 l -2.0591567,1.638785 5.9566257,1.10441 v -5.849692 z" />
  <path
     id="path4973"
     d="m 8.3161708,77.220868 c 0.3858826,0 0.7744827,0.04894 0.9674238,0.144108 0.3858822,0.193051 0.7690474,0.576433 0.9592714,0.959816 0.19294,0.386102 0.19294,0.58459 0,0.970692 -0.190224,0.383383 -0.9592714,0.766765 -0.9592714,0.959816 0,0.383383 0.5761059,0.959816 0.9592714,0.959816 h 3.847953 v 3.858297 c 0,0.383382 0.58426,0.959815 0.967425,0.959815 0.192939,0 0.576104,-0.769483 0.95927,-0.959815 0.385882,-0.193051 0.584258,-0.193051 0.970141,0 0.383166,0.190332 0.76633,0.573714 0.959271,0.959815 0.192942,0.383383 0.192942,1.541688 0,1.92779 -0.192941,0.386101 -0.576105,0.766765 -0.959271,0.959817 -0.385883,0.19305 -0.584259,0.19305 -0.970141,0 -0.383166,-0.193052 -0.766331,-0.959817 -0.95927,-0.959817 -0.383165,0 -0.967425,0.576434 -0.967425,0.959817 v 3.858297 h -3.847953 c -0.3831655,0 -0.9592714,-0.573714 -0.9592714,-0.959818 0,-0.19305 0.7690474,-0.58459 0.9592714,-0.967972 0.19294,-0.386102 0.19294,-0.576432 0,-0.959817 -0.190224,-0.386099 -0.5733892,-0.77764 -0.9592714,-0.97069 -0.383165,-0.193052 -1.5408123,-0.193052 -1.9266947,0 -0.3858823,0.19305 -0.7744823,0.584591 -0.9674233,0.97069 -0.1929412,0.383385 -0.1929412,0.573715 0,0.959817 0.192941,0.383382 0.9674233,0.774922 0.9674233,0.967972 0,0.386104 -0.5842586,0.959818 -0.9674233,0.959818 H 2.5415224 v -3.858297 c 0,-0.0083 -0.00815,-0.01632 -0.00815,-0.02446 0.024457,-0.386101 0.5896936,-0.935345 0.9674234,-0.935345 0.1929412,0 0.576106,0.766766 0.9592711,0.959816 0.3858823,0.193051 0.5842584,0.193051 0.9701409,0 0.383165,-0.19305 0.7663299,-0.573714 0.9592712,-0.959816 0.192941,-0.386101 0.192941,-1.544406 0,-1.927789 -0.1929462,-0.38611 -0.5761111,-0.769491 -0.9592761,-0.959823 -0.3858824,-0.193051 -0.5842585,-0.193051 -0.9701408,0 -0.3831651,0.190332 -0.7663299,0.959815 -0.9592711,0.959815 -0.3777299,0 -0.9456837,-0.549241 -0.9674235,-0.935344 0,-0.0081 0.00815,-0.01631 0.00815,-0.02447 v -3.858303 h 3.8479543 c 0.3831646,0 0.9674234,-0.576433 0.9674234,-0.959816 0,-0.193051 -0.7744824,-0.576433 -0.9674234,-0.959816 -0.1929412,-0.386102 -0.1929412,-0.58459 0,-0.970692 0.1929458,-0.383383 0.5815458,-0.766765 0.9674281,-0.959816 0.1929413,-0.09517 0.5733887,-0.144108 0.9592709,-0.144108 z"
     inkscape:connector-curvature="0"
     style="opacity:0.03999999;fill:#dbe2e3;fill-opacity:1;fill-rule:evenodd;stroke:#586c70;stroke-width:0.44173506;stroke-miterlimit:4;stroke-opacity:1;stroke-dasharray:none" />
  <use
     clip-path="url(#clipPath3027)"
     height="19"
     width="19"
     id="use4975"
     xlink:href="#path3768"
     y="0"
     x="0"
     transform="translate(0,76)" />
  <path
     inkscape:connector-curvature="0"
     id="path4963"
     style="text-indent:0;text-transform:none;block-progression:tb;color:#000000;fill:#008000;stroke:#004000;stroke-width:0.44251913;stroke-miterlimit:4;stroke-opacity:1;stroke-dasharray:none"
     d="m 15.695199,98.158901 -2.080544,1.653035 c -1.094195,-0.91756 -2.49939,-1.474918 -4.0256533,-1.474918 -3.449485,0 -6.2842691,2.835012 -6.2842691,6.284272 0,3.44948 2.8350121,6.2202 6.2842691,6.2202 2.7041373,0 5.0279623,-1.69969 5.9066933,-4.09702 l -2.251548,-0.54863 c -0.602548,1.42091 -1.998873,2.40112 -3.6551453,2.40112 -2.2171417,0 -3.9759482,-1.75869 -3.9759482,-3.97595 0,-2.21714 1.7586925,-4.04001 3.9759482,-4.04001 0.8226183,0 1.5784773,0.2547 2.2087963,0.68401 l -2.0591567,1.63879 5.9566257,1.1044 v -5.849687 z" />
  <path
     inkscape:connector-curvature="0"
     id="path4955"
     style="text-indent:0;text-transform:none;block-progression:tb;color:#000000;fill:#008000;stroke:#004000;stroke-width:0.44251913;stroke-miterlimit:4;stroke-opacity:1;stroke-dasharray:none"
     d="m 34.695199,3.1589006 -2.080544,1.653035 C 31.52046,3.8943757 30.115265,3.3370179 28.589002,3.3370179 c -3.449485,0 -6.284269,2.8350121 -6.284269,6.2842692 0,3.4494859 2.835012,6.2201999 6.284269,6.2201999 2.704137,0 5.027962,-1.699685 5.906693,-4.097018 l -2.251548,-0.548626 c -0.602548,1.420904 -1.998873,2.401119 -3.655145,2.401119 -2.217142,0 -3.975949,-1.758692 -3.975949,-3.9759483 0,-2.2171421 1.758693,-4.0400178 3.975949,-4.0400178 0.822618,0 1.578477,0.2547041 2.208796,0.6840144 l -2.059157,1.6387847 5.956626,1.1044099 v -5.849692 z" />
  <path
     id="path4957"
     d="m 27.316171,1.2208676 c 0.385882,0 0.774483,0.048942 0.967424,0.1441083 0.385882,0.1930509 0.769047,0.5764333 0.959271,0.959816 0.19294,0.3861017 0.19294,0.5845905 0,0.9706921 -0.190224,0.3833827 -0.959271,0.7667652 -0.959271,0.959816 0,0.3833826 0.576106,0.959816 0.959271,0.959816 h 3.847953 v 3.858297 c 0,0.3833825 0.58426,0.959815 0.967425,0.959815 0.192939,0 0.576104,-0.7694828 0.95927,-0.959815 0.385882,-0.1930507 0.584258,-0.1930507 0.970141,0 0.383166,0.1903322 0.76633,0.573714 0.959271,0.959815 0.192942,0.383383 0.192942,1.541688 0,1.92779 -0.192941,0.386101 -0.576105,0.766765 -0.959271,0.959817 -0.385883,0.19305 -0.584259,0.19305 -0.970141,0 -0.383166,-0.193052 -0.766331,-0.959817 -0.95927,-0.959817 -0.383165,0 -0.967425,0.576434 -0.967425,0.959817 v 3.858297 h -3.847953 c -0.383165,0 -0.959271,-0.573714 -0.959271,-0.959818 0,-0.19305 0.769047,-0.58459 0.959271,-0.967972 0.19294,-0.386102 0.19294,-0.576432 0,-0.959817 -0.190224,-0.386099 -0.573389,-0.77764 -0.959271,-0.97069 -0.383165,-0.193052 -1.540813,-0.193052 -1.926695,0 -0.385882,0.19305 -0.774482,0.584591 -0.967423,0.97069 -0.192942,0.383385 -0.192942,0.573715 0,0.959817 0.192941,0.383382 0.967423,0.774922 0.967423,0.967972 0,0.386104 -0.584259,0.959818 -0.967423,0.959818 h -3.847955 v -3.858297 c 0,-0.0083 -0.0082,-0.01632 -0.0082,-0.02446 0.02446,-0.386101 0.589694,-0.935345 0.967424,-0.935345 0.192941,0 0.576106,0.766766 0.959271,0.959816 0.385882,0.193051 0.584258,0.193051 0.970141,0 0.383165,-0.19305 0.76633,-0.573714 0.959271,-0.959816 0.192941,-0.386101 0.192941,-1.544406 0,-1.927789 -0.192946,-0.38611 -0.576111,-0.7694912 -0.959276,-0.9598234 -0.385882,-0.1930507 -0.584259,-0.1930507 -0.970141,0 -0.383165,0.1903322 -0.76633,0.9598154 -0.959271,0.9598154 -0.37773,0 -0.945684,-0.5492415 -0.967424,-0.9353444 0,-0.00812 0.0082,-0.016313 0.0082,-0.02447 V 5.215116 h 3.847955 c 0.383164,0 0.967423,-0.5764334 0.967423,-0.959816 0,-0.1930508 -0.774482,-0.5764333 -0.967423,-0.959816 -0.192941,-0.3861016 -0.192941,-0.5845904 0,-0.9706921 0.192946,-0.3833827 0.581546,-0.7667651 0.967428,-0.959816 0.192941,-0.095166 0.573389,-0.1441083 0.959271,-0.1441083 z"
     inkscape:connector-curvature="0"
     style="opacity:0.95999995;fill:#dbe2e3;fill-opacity:1;fill-rule:evenodd;stroke:#586c70;stroke-width:0.44173506;stroke-miterlimit:4;stroke-opacity:1;stroke-dasharray:none" />
  <use
     clip-path="url(#clipPath3027)"
     height="19"
     width="19"
     id="use4959"
     xlink:href="#path3768"
     y="0"
     x="0"
     transform="translate(19,0)" />
  <path
     inkscape:connector-curvature="0"
     id="path4947"
     style="text-indent:0;text-transform:none;block-progression:tb;color:#000000;fill:#008000;stroke:#004000;stroke-width:0.44251913;stroke-miterlimit:4;stroke-opacity:1;stroke-dasharray:none"
     d="m 34.695199,22.158901 -2.080544,1.653035 c -1.094195,-0.91756 -2.49939,-1.474918 -4.025653,-1.474918 -3.449485,0 -6.284269,2.835012 -6.284269,6.284269 0,3.449486 2.835012,6.2202 6.284269,6.2202 2.704137,0 5.027962,-1.699685 5.906693,-4.097018 l -2.251548,-0.548626 c -0.602548,1.420904 -1.998873,2.401119 -3.655145,2.401119 -2.217142,0 -3.975949,-1.758692 -3.975949,-3.975948 0,-2.217142 1.758693,-4.040018 3.975949,-4.040018 0.822618,0 1.578477,0.254704 2.208796,0.684014 l -2.059157,1.638785 5.956626,1.10441 v -5.849692 z" />
  <path
     id="path4949"
     d="m 27.316171,20.220868 c 0.385882,0 0.774483,0.04894 0.967424,0.144108 0.385882,0.193051 0.769047,0.576433 0.959271,0.959816 0.19294,0.386102 0.19294,0.58459 0,0.970692 -0.190224,0.383383 -0.959271,0.766765 -0.959271,0.959816 0,0.383383 0.576106,0.959816 0.959271,0.959816 h 3.847953 v 3.858297 c 0,0.383382 0.58426,0.959815 0.967425,0.959815 0.192939,0 0.576104,-0.769483 0.95927,-0.959815 0.385882,-0.193051 0.584258,-0.193051 0.970141,0 0.383166,0.190332 0.76633,0.573714 0.959271,0.959815 0.192942,0.383383 0.192942,1.541688 0,1.92779 -0.192941,0.386101 -0.576105,0.766765 -0.959271,0.959817 -0.385883,0.19305 -0.584259,0.19305 -0.970141,0 -0.383166,-0.193052 -0.766331,-0.959817 -0.95927,-0.959817 -0.383165,0 -0.967425,0.576434 -0.967425,0.959817 v 3.858297 h -3.847953 c -0.383165,0 -0.959271,-0.573714 -0.959271,-0.959818 0,-0.19305 0.769047,-0.58459 0.959271,-0.967972 0.19294,-0.386102 0.19294,-0.576432 0,-0.959817 -0.190224,-0.386099 -0.573389,-0.77764 -0.959271,-0.97069 -0.383165,-0.193052 -1.540813,-0.193052 -1.926695,0 -0.385882,0.19305 -0.774482,0.584591 -0.967423,0.97069 -0.192942,0.383385 -0.192942,0.573715 0,0.959817 0.192941,0.383382 0.967423,0.774922 0.967423,0.967972 0,0.386104 -0.584259,0.959818 -0.967423,0.959818 h -3.847955 v -3.858297 c 0,-0.0083 -0.0082,-0.01632 -0.0082,-0.02446 0.02446,-0.386101 0.589694,-0.935345 0.967424,-0.935345 0.192941,0 0.576106,0.766766 0.959271,0.959816 0.385882,0.193051 0.584258,0.193051 0.970141,0 0.383165,-0.19305 0.76633,-0.573714 0.959271,-0.959816 0.192941,-0.386101 0.192941,-1.544406 0,-1.927789 -0.192946,-0.38611 -0.576111,-0.769491 -0.959276,-0.959823 -0.385882,-0.193051 -0.584259,-0.193051 -0.970141,0 -0.383165,0.190332 -0.76633,0.959815 -0.959271,0.959815 -0.37773,0 -0.945684,-0.549242 -0.967424,-0.935344 0,-0.0081 0.0082,-0.01631 0.0082,-0.02447 v -3.858303 h 3.847955 c 0.383164,0 0.967423,-0.576433 0.967423,-0.959816 0,-0.193051 -0.774482,-0.576433 -0.967423,-0.959816 -0.192941,-0.386102 -0.192941,-0.58459 0,-0.970692 0.192946,-0.383383 0.581546,-0.766765 0.967428,-0.959816 0.192941,-0.09517 0.573389,-0.144108 0.959271,-0.144108 z"
     inkscape:connector-curvature="0"
     style="opacity:0.72000002;fill:#dbe2e3;fill-opacity:1;fill-rule:evenodd;stroke:#586c70;stroke-width:0.44173506;stroke-miterlimit:4;stroke-opacity:1;stroke-dasharray:none" />
  <use
     clip-path="url(#clipPath3027)"
     height="19"
     width="19"
     id="use4951"
     xlink:href="#path3768"
     y="0"
     x="0"
     transform="translate(19,19)" />
  <path
     inkscape:connector-curvature="0"
     id="path4939"
     style="text-indent:0;text-transform:none;block-progression:tb;color:#000000;fill:#008000;stroke:#004000;stroke-width:0.44251913;stroke-miterlimit:4;stroke-opacity:1;stroke-dasharray:none"
     d="m 34.695199,41.158901 -2.080544,1.653035 c -1.094195,-0.91756 -2.49939,-1.474918 -4.025653,-1.474918 -3.449485,0 -6.284269,2.835012 -6.284269,6.284269 0,3.449486 2.835012,6.2202 6.284269,6.2202 2.704137,0 5.027962,-1.699685 5.906693,-4.097018 l -2.251548,-0.548626 c -0.602548,1.420904 -1.998873,2.401119 -3.655145,2.401119 -2.217142,0 -3.975949,-1.758692 -3.975949,-3.975948 0,-2.217142 1.758693,-4.040018 3.975949,-4.040018 0.822618,0 1.578477,0.254704 2.208796,0.684014 l -2.059157,1.638785 5.956626,1.10441 v -5.849692 z" />
  <path
     id="path4941"
     d="m 27.316171,39.220868 c 0.385882,0 0.774483,0.04894 0.967424,0.144108 0.385882,0.193051 0.769047,0.576433 0.959271,0.959816 0.19294,0.386102 0.19294,0.58459 0,0.970692 -0.190224,0.383383 -0.959271,0.766765 -0.959271,0.959816 0,0.383383 0.576106,0.959816 0.959271,0.959816 h 3.847953 v 3.858297 c 0,0.383382 0.58426,0.959815 0.967425,0.959815 0.192939,0 0.576104,-0.769483 0.95927,-0.959815 0.385882,-0.193051 0.584258,-0.193051 0.970141,0 0.383166,0.190332 0.76633,0.573714 0.959271,0.959815 0.192942,0.383383 0.192942,1.541688 0,1.92779 -0.192941,0.386101 -0.576105,0.766765 -0.959271,0.959817 -0.385883,0.19305 -0.584259,0.19305 -0.970141,0 -0.383166,-0.193052 -0.766331,-0.959817 -0.95927,-0.959817 -0.383165,0 -0.967425,0.576434 -0.967425,0.959817 v 3.858297 h -3.847953 c -0.383165,0 -0.959271,-0.573714 -0.959271,-0.959818 0,-0.19305 0.769047,-0.58459 0.959271,-0.967972 0.19294,-0.386102 0.19294,-0.576432 0,-0.959817 -0.190224,-0.386099 -0.573389,-0.77764 -0.959271,-0.97069 -0.383165,-0.193052 -1.540813,-0.193052 -1.926695,0 -0.385882,0.19305 -0.774482,0.584591 -0.967423,0.97069 -0.192942,0.383385 -0.192942,0.573715 0,0.959817 0.192941,0.383382 0.967423,0.774922 0.967423,0.967972 0,0.386104 -0.584259,0.959818 -0.967423,0.959818 h -3.847955 v -3.858297 c 0,-0.0083 -0.0082,-0.01632 -0.0082,-0.02446 0.02446,-0.386101 0.589694,-0.935345 0.967424,-0.935345 0.192941,0 0.576106,0.766766 0.959271,0.959816 0.385882,0.193051 0.584258,0.193051 0.970141,0 0.383165,-0.19305 0.76633,-0.573714 0.959271,-0.959816 0.192941,-0.386101 0.192941,-1.544406 0,-1.927789 -0.192946,-0.38611 -0.576111,-0.769491 -0.959276,-0.959823 -0.385882,-0.193051 -0.584259,-0.193051 -0.970141,0 -0.383165,0.190332 -0.76633,0.959815 -0.959271,0.959815 -0.37773,0 -0.945684,-0.549241 -0.967424,-0.935344 0,-0.0081 0.0082,-0.01631 0.0082,-0.02447 v -3.858303 h 3.847955 c 0.383164,0 0.967423,-0.576433 0.967423,-0.959816 0,-0.193051 -0.774482,-0.576433 -0.967423,-0.959816 -0.192941,-0.386102 -0.192941,-0.58459 0,-0.970692 0.192946,-0.383383 0.581546,-0.766765 0.967428,-0.959816 0.192941,-0.09517 0.573389,-0.144108 0.959271,-0.144108 z"
     inkscape:connector-curvature="0"
     style="opacity:0.47999998;fill:#dbe2e3;fill-opacity:1;fill-rule:evenodd;stroke:#586c70;stroke-width:0.44173506;stroke-miterlimit:4;stroke-opacity:1;stroke-dasharray:none" />
  <use
     clip-path="url(#clipPath3027)"
     height="19"
     width="19"
     id="use4943"
     xlink:href="#path3768"
     y="0"
     x="0"
     transform="translate(19,38)" />
  <path
     inkscape:connector-curvature="0"
     id="path4931"
     style="text-indent:0;text-transform:none;block-progression:tb;color:#000000;fill:#008000;stroke:#004000;stroke-width:0.44251913;stroke-miterlimit:4;stroke-opacity:1;stroke-dasharray:none"
     d="m 34.695199,60.158901 -2.080544,1.653035 c -1.094195,-0.91756 -2.49939,-1.474918 -4.025653,-1.474918 -3.449485,0 -6.284269,2.835012 -6.284269,6.284269 0,3.449486 2.835012,6.2202 6.284269,6.2202 2.704137,0 5.027962,-1.699685 5.906693,-4.097018 l -2.251548,-0.548626 c -0.602548,1.420904 -1.998873,2.401119 -3.655145,2.401119 -2.217142,0 -3.975949,-1.758692 -3.975949,-3.975948 0,-2.217142 1.758693,-4.040018 3.975949,-4.040018 0.822618,0 1.578477,0.254704 2.208796,0.684014 l -2.059157,1.638785 5.956626,1.10441 v -5.849692 z" />
  <path
     id="path4933"
     d="m 27.316171,58.220868 c 0.385882,0 0.774483,0.04894 0.967424,0.144108 0.385882,0.193051 0.769047,0.576433 0.959271,0.959816 0.19294,0.386102 0.19294,0.58459 0,0.970692 -0.190224,0.383383 -0.959271,0.766765 -0.959271,0.959816 0,0.383383 0.576106,0.959816 0.959271,0.959816 h 3.847953 v 3.858297 c 0,0.383382 0.58426,0.959815 0.967425,0.959815 0.192939,0 0.576104,-0.769483 0.95927,-0.959815 0.385882,-0.193051 0.584258,-0.193051 0.970141,0 0.383166,0.190332 0.76633,0.573714 0.959271,0.959815 0.192942,0.383383 0.192942,1.541688 0,1.92779 -0.192941,0.386101 -0.576105,0.766765 -0.959271,0.959817 -0.385883,0.19305 -0.584259,0.19305 -0.970141,0 -0.383166,-0.193052 -0.766331,-0.959817 -0.95927,-0.959817 -0.383165,0 -0.967425,0.576434 -0.967425,0.959817 v 3.858297 h -3.847953 c -0.383165,0 -0.959271,-0.573714 -0.959271,-0.959818 0,-0.19305 0.769047,-0.58459 0.959271,-0.967972 0.19294,-0.386102 0.19294,-0.576432 0,-0.959817 -0.190224,-0.386099 -0.573389,-0.77764 -0.959271,-0.97069 -0.383165,-0.193052 -1.540813,-0.193052 -1.926695,0 -0.385882,0.19305 -0.774482,0.584591 -0.967423,0.97069 -0.192942,0.383385 -0.192942,0.573715 0,0.959817 0.192941,0.383382 0.967423,0.774922 0.967423,0.967972 0,0.386104 -0.584259,0.959818 -0.967423,0.959818 h -3.847955 v -3.858297 c 0,-0.0083 -0.0082,-0.01632 -0.0082,-0.02446 0.02446,-0.386101 0.589694,-0.935345 0.967424,-0.935345 0.192941,0 0.576106,0.766766 0.959271,0.959816 0.385882,0.193051 0.584258,0.193051 0.970141,0 0.383165,-0.19305 0.76633,-0.573714 0.959271,-0.959816 0.192941,-0.386101 0.192941,-1.544406 0,-1.927789 -0.192946,-0.38611 -0.576111,-0.769491 -0.959276,-0.959823 -0.385882,-0.193051 -0.584259,-0.193051 -0.970141,0 -0.383165,0.190332 -0.76633,0.959815 -0.959271,0.959815 -0.37773,0 -0.945684,-0.549241 -0.967424,-0.935344 0,-0.0081 0.0082,-0.01631 0.0082,-0.02447 v -3.858303 h 3.847955 c 0.383164,0 0.967423,-0.576433 0.967423,-0.959816 0,-0.193051 -0.774482,-0.576433 -0.967423,-0.959816 -0.192941,-0.386102 -0.192941,-0.58459 0,-0.970692 0.192946,-0.383383 0.581546,-0.766765 0.967428,-0.959816 0.192941,-0.09517 0.573389,-0.144108 0.959271,-0.144108 z"
     inkscape:connector-curvature="0"
     style="opacity:0.23999999;fill:#dbe2e3;fill-opacity:1;fill-rule:evenodd;stroke:#586c70;stroke-width:0.44173506;stroke-miterlimit:4;stroke-opacity:1;stroke-dasharray:none" />
  <use
     clip-path="url(#clipPath3027)"
     height="19"
     width="19"
     id="use4935"
     xlink:href="#path3768"
     y="0"
     x="0"
     transform="translate(19,57)" />
  <path
     inkscape:connector-curvature="0"
     id="path4923"
     style="text-indent:0;text-transform:none;block-progression:tb;color:#000000;fill:#008000;stroke:#004000;stroke-width:0.44251913;stroke-miterlimit:4;stroke-opacity:1;stroke-dasharray:none"
     d="m 34.695199,79.158901 -2.080544,1.653035 c -1.094195,-0.91756 -2.49939,-1.474918 -4.025653,-1.474918 -3.449485,0 -6.284269,2.835012 -6.284269,6.284269 0,3.449486 2.835012,6.2202 6.284269,6.2202 2.704137,0 5.027962,-1.699685 5.906693,-4.097018 l -2.251548,-0.548626 c -0.602548,1.420904 -1.998873,2.401119 -3.655145,2.401119 -2.217142,0 -3.975949,-1.758692 -3.975949,-3.975948 0,-2.217142 1.758693,-4.040018 3.975949,-4.040018 0.822618,0 1.578477,0.254704 2.208796,0.684014 l -2.059157,1.638785 5.956626,1.10441 v -5.849692 z" />
  <use
     clip-path="url(#clipPath3027)"
     height="19"
     width="19"
     id="use4927"
     xlink:href="#path3768"
     y="0"
     x="0"
     transform="translate(19,76)" />
  <path
     inkscape:connector-curvature="0"
     id="path4915"
     style="text-indent:0;text-transform:none;block-progression:tb;color:#000000;fill:#008000;stroke:#004000;stroke-width:0.44251913;stroke-miterlimit:4;stroke-opacity:1;stroke-dasharray:none"
     d="m 34.695199,98.158901 -2.080544,1.653035 c -1.094195,-0.91756 -2.49939,-1.474918 -4.025653,-1.474918 -3.449485,0 -6.284269,2.835012 -6.284269,6.284272 0,3.44948 2.835012,6.2202 6.284269,6.2202 2.704137,0 5.027962,-1.69969 5.906693,-4.09702 l -2.251548,-0.54863 c -0.602548,1.42091 -1.998873,2.40112 -3.655145,2.40112 -2.217142,0 -3.975949,-1.75869 -3.975949,-3.97595 0,-2.21714 1.758693,-4.04001 3.975949,-4.04001 0.822618,0 1.578477,0.2547 2.208796,0.68401 l -2.059157,1.63879 5.956626,1.1044 v -5.849687 z" />
  <path
     inkscape:connector-curvature="0"
     id="path4907"
     style="text-indent:0;text-transform:none;block-progression:tb;color:#000000;fill:#008000;stroke:#004000;stroke-width:0.44251913;stroke-miterlimit:4;stroke-opacity:1;stroke-dasharray:none"
     d="m 53.695199,3.1589006 -2.080544,1.653035 C 50.52046,3.8943757 49.115265,3.3370179 47.589002,3.3370179 c -3.449485,0 -6.284269,2.8350121 -6.284269,6.2842692 0,3.4494859 2.835012,6.2201999 6.284269,6.2201999 2.704137,0 5.027962,-1.699685 5.906693,-4.097018 l -2.251548,-0.548626 c -0.602548,1.420904 -1.998873,2.401119 -3.655145,2.401119 -2.217142,0 -3.975949,-1.758692 -3.975949,-3.9759483 0,-2.2171421 1.758693,-4.0400178 3.975949,-4.0400178 0.822618,0 1.578477,0.2547041 2.208796,0.6840144 l -2.059157,1.6387847 5.956626,1.1044099 v -5.849692 z" />
  <path
     id="path4909"
     d="m 46.316171,1.2208676 c 0.385882,0 0.774483,0.048942 0.967424,0.1441083 0.385882,0.1930509 0.769047,0.5764333 0.959271,0.959816 0.19294,0.3861017 0.19294,0.5845905 0,0.9706921 -0.190224,0.3833827 -0.959271,0.7667652 -0.959271,0.959816 0,0.3833826 0.576106,0.959816 0.959271,0.959816 h 3.847953 v 3.858297 c 0,0.3833825 0.58426,0.959815 0.967425,0.959815 0.192939,0 0.576104,-0.7694828 0.95927,-0.959815 0.385882,-0.1930507 0.584258,-0.1930507 0.970141,0 0.383166,0.1903322 0.76633,0.573714 0.959271,0.959815 0.192942,0.383383 0.192942,1.541688 0,1.92779 -0.192941,0.386101 -0.576105,0.766765 -0.959271,0.959817 -0.385883,0.19305 -0.584259,0.19305 -0.970141,0 -0.383166,-0.193052 -0.766331,-0.959817 -0.95927,-0.959817 -0.383165,0 -0.967425,0.576434 -0.967425,0.959817 v 3.858297 h -3.847953 c -0.383165,0 -0.959271,-0.573714 -0.959271,-0.959818 0,-0.19305 0.769047,-0.58459 0.959271,-0.967972 0.19294,-0.386102 0.19294,-0.576432 0,-0.959817 -0.190224,-0.386099 -0.573389,-0.77764 -0.959271,-0.97069 -0.383165,-0.193052 -1.540813,-0.193052 -1.926695,0 -0.385882,0.19305 -0.774482,0.584591 -0.967423,0.97069 -0.192942,0.383385 -0.192942,0.573715 0,0.959817 0.192941,0.383382 0.967423,0.774922 0.967423,0.967972 0,0.386104 -0.584259,0.959818 -0.967423,0.959818 h -3.847955 v -3.858297 c 0,-0.0083 -0.0082,-0.01632 -0.0082,-0.02446 0.02446,-0.386101 0.589694,-0.935345 0.967424,-0.935345 0.192941,0 0.576106,0.766766 0.959271,0.959816 0.385882,0.193051 0.584258,0.193051 0.970141,0 0.383165,-0.19305 0.76633,-0.573714 0.959271,-0.959816 0.192941,-0.386101 0.192941,-1.544406 0,-1.927789 -0.192946,-0.38611 -0.576111,-0.7694912 -0.959276,-0.9598234 -0.385883,-0.1930507 -0.584259,-0.1930507 -0.970141,0 -0.383165,0.1903322 -0.76633,0.9598154 -0.959271,0.9598154 -0.37773,0 -0.945684,-0.5492415 -0.967424,-0.9353444 0,-0.00812 0.0082,-0.016313 0.0082,-0.02447 V 5.215116 h 3.847955 c 0.383164,0 0.967423,-0.5764334 0.967423,-0.959816 0,-0.1930508 -0.774482,-0.5764333 -0.967423,-0.959816 -0.192941,-0.3861016 -0.192941,-0.5845904 0,-0.9706921 0.192946,-0.3833827 0.581546,-0.7667651 0.967428,-0.959816 0.192941,-0.095166 0.573389,-0.1441083 0.959271,-0.1441083 z"
     inkscape:connector-curvature="0"
     style="opacity:0.92000002;fill:#dbe2e3;fill-opacity:1;fill-rule:evenodd;stroke:#586c70;stroke-width:0.44173506;stroke-miterlimit:4;stroke-opacity:1;stroke-dasharray:none" />
  <use
     clip-path="url(#clipPath3027)"
     height="19"
     width="19"
     id="use4911"
     xlink:href="#path3768"
     y="0"
     x="0"
     transform="translate(38,0)" />
  <path
     inkscape:connector-curvature="0"
     id="path4899"
     style="text-indent:0;text-transform:none;block-progression:tb;color:#000000;fill:#008000;stroke:#004000;stroke-width:0.44251913;stroke-miterlimit:4;stroke-opacity:1;stroke-dasharray:none"
     d="m 53.695199,22.158901 -2.080544,1.653035 c -1.094195,-0.91756 -2.49939,-1.474918 -4.025653,-1.474918 -3.449485,0 -6.284269,2.835012 -6.284269,6.284269 0,3.449486 2.835012,6.2202 6.284269,6.2202 2.704137,0 5.027962,-1.699685 5.906693,-4.097018 l -2.251548,-0.548626 c -0.602548,1.420904 -1.998873,2.401119 -3.655145,2.401119 -2.217142,0 -3.975949,-1.758692 -3.975949,-3.975948 0,-2.217142 1.758693,-4.040018 3.975949,-4.040018 0.822618,0 1.578477,0.254704 2.208796,0.684014 l -2.059157,1.638785 5.956626,1.10441 v -5.849692 z" />
  <path
     id="path4901"
     d="m 46.316171,20.220868 c 0.385882,0 0.774483,0.04894 0.967424,0.144108 0.385882,0.193051 0.769047,0.576433 0.959271,0.959816 0.19294,0.386102 0.19294,0.58459 0,0.970692 -0.190224,0.383383 -0.959271,0.766765 -0.959271,0.959816 0,0.383383 0.576106,0.959816 0.959271,0.959816 h 3.847953 v 3.858297 c 0,0.383382 0.58426,0.959815 0.967425,0.959815 0.192939,0 0.576104,-0.769483 0.95927,-0.959815 0.385882,-0.193051 0.584258,-0.193051 0.970141,0 0.383166,0.190332 0.76633,0.573714 0.959271,0.959815 0.192942,0.383383 0.192942,1.541688 0,1.92779 -0.192941,0.386101 -0.576105,0.766765 -0.959271,0.959817 -0.385883,0.19305 -0.584259,0.19305 -0.970141,0 -0.383166,-0.193052 -0.766331,-0.959817 -0.95927,-0.959817 -0.383165,0 -0.967425,0.576434 -0.967425,0.959817 v 3.858297 h -3.847953 c -0.383165,0 -0.959271,-0.573714 -0.959271,-0.959818 0,-0.19305 0.769047,-0.58459 0.959271,-0.967972 0.19294,-0.386102 0.19294,-0.576432 0,-0.959817 -0.190224,-0.386099 -0.573389,-0.77764 -0.959271,-0.97069 -0.383165,-0.193052 -1.540813,-0.193052 -1.926695,0 -0.385882,0.19305 -0.774482,0.584591 -0.967423,0.97069 -0.192942,0.383385 -0.192942,0.573715 0,0.959817 0.192941,0.383382 0.967423,0.774922 0.967423,0.967972 0,0.386104 -0.584259,0.959818 -0.967423,0.959818 h -3.847955 v -3.858297 c 0,-0.0083 -0.0082,-0.01632 -0.0082,-0.02446 0.02446,-0.386101 0.589694,-0.935345 0.967424,-0.935345 0.192941,0 0.576106,0.766766 0.959271,0.959816 0.385882,0.193051 0.584258,0.193051 0.970141,0 0.383165,-0.19305 0.76633,-0.573714 0.959271,-0.959816 0.192941,-0.386101 0.192941,-1.544406 0,-1.927789 -0.192946,-0.38611 -0.576111,-0.769491 -0.959276,-0.959823 -0.385883,-0.193051 -0.584259,-0.193051 -0.970141,0 -0.383165,0.190332 -0.76633,0.959815 -0.959271,0.959815 -0.37773,0 -0.945684,-0.549242 -0.967424,-0.935344 0,-0.0081 0.0082,-0.01631 0.0082,-0.02447 v -3.858303 h 3.847955 c 0.383164,0 0.967423,-0.576433 0.967423,-0.959816 0,-0.193051 -0.774482,-0.576433 -0.967423,-0.959816 -0.192941,-0.386102 -0.192941,-0.58459 0,-0.970692 0.192946,-0.383383 0.581546,-0.766765 0.967428,-0.959816 0.192941,-0.09517 0.573389,-0.144108 0.959271,-0.144108 z"
     inkscape:connector-curvature="0"
     style="opacity:0.68000016;fill:#dbe2e3;fill-opacity:1;fill-rule:evenodd;stroke:#586c70;stroke-width:0.44173506;stroke-miterlimit:4;stroke-opacity:1;stroke-dasharray:none" />
  <use
     clip-path="url(#clipPath3027)"
     height="19"
     width="19"
     id="use4903"
     xlink:href="#path3768"
     y="0"
     x="0"
     transform="translate(38,19)" />
  <path
     inkscape:connector-curvature="0"
     id="path4891"
     style="text-indent:0;text-transform:none;block-progression:tb;color:#000000;fill:#008000;stroke:#004000;stroke-width:0.44251913;stroke-miterlimit:4;stroke-opacity:1;stroke-dasharray:none"
     d="m 53.695199,41.158901 -2.080544,1.653035 c -1.094195,-0.91756 -2.49939,-1.474918 -4.025653,-1.474918 -3.449485,0 -6.284269,2.835012 -6.284269,6.284269 0,3.449486 2.835012,6.2202 6.284269,6.2202 2.704137,0 5.027962,-1.699685 5.906693,-4.097018 l -2.251548,-0.548626 c -0.602548,1.420904 -1.998873,2.401119 -3.655145,2.401119 -2.217142,0 -3.975949,-1.758692 -3.975949,-3.975948 0,-2.217142 1.758693,-4.040018 3.975949,-4.040018 0.822618,0 1.578477,0.254704 2.208796,0.684014 l -2.059157,1.638785 5.956626,1.10441 v -5.849692 z" />
  <path
     id="path4893"
     d="m 46.316171,39.220868 c 0.385882,0 0.774483,0.04894 0.967424,0.144108 0.385882,0.193051 0.769047,0.576433 0.959271,0.959816 0.19294,0.386102 0.19294,0.58459 0,0.970692 -0.190224,0.383383 -0.959271,0.766765 -0.959271,0.959816 0,0.383383 0.576106,0.959816 0.959271,0.959816 h 3.847953 v 3.858297 c 0,0.383382 0.58426,0.959815 0.967425,0.959815 0.192939,0 0.576104,-0.769483 0.95927,-0.959815 0.385882,-0.193051 0.584258,-0.193051 0.970141,0 0.383166,0.190332 0.76633,0.573714 0.959271,0.959815 0.192942,0.383383 0.192942,1.541688 0,1.92779 -0.192941,0.386101 -0.576105,0.766765 -0.959271,0.959817 -0.385883,0.19305 -0.584259,0.19305 -0.970141,0 -0.383166,-0.193052 -0.766331,-0.959817 -0.95927,-0.959817 -0.383165,0 -0.967425,0.576434 -0.967425,0.959817 v 3.858297 h -3.847953 c -0.383165,0 -0.959271,-0.573714 -0.959271,-0.959818 0,-0.19305 0.769047,-0.58459 0.959271,-0.967972 0.19294,-0.386102 0.19294,-0.576432 0,-0.959817 -0.190224,-0.386099 -0.573389,-0.77764 -0.959271,-0.97069 -0.383165,-0.193052 -1.540813,-0.193052 -1.926695,0 -0.385882,0.19305 -0.774482,0.584591 -0.967423,0.97069 -0.192942,0.383385 -0.192942,0.573715 0,0.959817 0.192941,0.383382 0.967423,0.774922 0.967423,0.967972 0,0.386104 -0.584259,0.959818 -0.967423,0.959818 h -3.847955 v -3.858297 c 0,-0.0083 -0.0082,-0.01632 -0.0082,-0.02446 0.02446,-0.386101 0.589694,-0.935345 0.967424,-0.935345 0.192941,0 0.576106,0.766766 0.959271,0.959816 0.385882,0.193051 0.584258,0.193051 0.970141,0 0.383165,-0.19305 0.76633,-0.573714 0.959271,-0.959816 0.192941,-0.386101 0.192941,-1.544406 0,-1.927789 -0.192946,-0.38611 -0.576111,-0.769491 -0.959276,-0.959823 -0.385883,-0.193051 -0.584259,-0.193051 -0.970141,0 -0.383165,0.190332 -0.76633,0.959815 -0.959271,0.959815 -0.37773,0 -0.945684,-0.549241 -0.967424,-0.935344 0,-0.0081 0.0082,-0.01631 0.0082,-0.02447 v -3.858303 h 3.847955 c 0.383164,0 0.967423,-0.576433 0.967423,-0.959816 0,-0.193051 -0.774482,-0.576433 -0.967423,-0.959816 -0.192941,-0.386102 -0.192941,-0.58459 0,-0.970692 0.192946,-0.383383 0.581546,-0.766765 0.967428,-0.959816 0.192941,-0.09517 0.573389,-0.144108 0.959271,-0.144108 z"
     inkscape:connector-curvature="0"
     style="opacity:0.43999999;fill:#dbe2e3;fill-opacity:1;fill-rule:evenodd;stroke:#586c70;stroke-width:0.44173506;stroke-miterlimit:4;stroke-opacity:1;stroke-dasharray:none" />
  <use
     clip-path="url(#clipPath3027)"
     height="19"
     width="19"
     id="use4895"
     xlink:href="#path3768"
     y="0"
     x="0"
     transform="translate(38,38)" />
  <path
     inkscape:connector-curvature="0"
     id="path4883"
     style="text-indent:0;text-transform:none;block-progression:tb;color:#000000;fill:#008000;stroke:#004000;stroke-width:0.44251913;stroke-miterlimit:4;stroke-opacity:1;stroke-dasharray:none"
     d="m 53.695199,60.158901 -2.080544,1.653035 c -1.094195,-0.91756 -2.49939,-1.474918 -4.025653,-1.474918 -3.449485,0 -6.284269,2.835012 -6.284269,6.284269 0,3.449486 2.835012,6.2202 6.284269,6.2202 2.704137,0 5.027962,-1.699685 5.906693,-4.097018 l -2.251548,-0.548626 c -0.602548,1.420904 -1.998873,2.401119 -3.655145,2.401119 -2.217142,0 -3.975949,-1.758692 -3.975949,-3.975948 0,-2.217142 1.758693,-4.040018 3.975949,-4.040018 0.822618,0 1.578477,0.254704 2.208796,0.684014 l -2.059157,1.638785 5.956626,1.10441 v -5.849692 z" />
  <path
     id="path4885"
     d="m 46.316171,58.220868 c 0.385882,0 0.774483,0.04894 0.967424,0.144108 0.385882,0.193051 0.769047,0.576433 0.959271,0.959816 0.19294,0.386102 0.19294,0.58459 0,0.970692 -0.190224,0.383383 -0.959271,0.766765 -0.959271,0.959816 0,0.383383 0.576106,0.959816 0.959271,0.959816 h 3.847953 v 3.858297 c 0,0.383382 0.58426,0.959815 0.967425,0.959815 0.192939,0 0.576104,-0.769483 0.95927,-0.959815 0.385882,-0.193051 0.584258,-0.193051 0.970141,0 0.383166,0.190332 0.76633,0.573714 0.959271,0.959815 0.192942,0.383383 0.192942,1.541688 0,1.92779 -0.192941,0.386101 -0.576105,0.766765 -0.959271,0.959817 -0.385883,0.19305 -0.584259,0.19305 -0.970141,0 -0.383166,-0.193052 -0.766331,-0.959817 -0.95927,-0.959817 -0.383165,0 -0.967425,0.576434 -0.967425,0.959817 v 3.858297 h -3.847953 c -0.383165,0 -0.959271,-0.573714 -0.959271,-0.959818 0,-0.19305 0.769047,-0.58459 0.959271,-0.967972 0.19294,-0.386102 0.19294,-0.576432 0,-0.959817 -0.190224,-0.386099 -0.573389,-0.77764 -0.959271,-0.97069 -0.383165,-0.193052 -1.540813,-0.193052 -1.926695,0 -0.385882,0.19305 -0.774482,0.584591 -0.967423,0.97069 -0.192942,0.383385 -0.192942,0.573715 0,0.959817 0.192941,0.383382 0.967423,0.774922 0.967423,0.967972 0,0.386104 -0.584259,0.959818 -0.967423,0.959818 h -3.847955 v -3.858297 c 0,-0.0083 -0.0082,-0.01632 -0.0082,-0.02446 0.02446,-0.386101 0.589694,-0.935345 0.967424,-0.935345 0.192941,0 0.576106,0.766766 0.959271,0.959816 0.385882,0.193051 0.584258,0.193051 0.970141,0 0.383165,-0.19305 0.76633,-0.573714 0.959271,-0.959816 0.192941,-0.386101 0.192941,-1.544406 0,-1.927789 -0.192946,-0.38611 -0.576111,-0.769491 -0.959276,-0.959823 -0.385883,-0.193051 -0.584259,-0.193051 -0.970141,0 -0.383165,0.190332 -0.76633,0.959815 -0.959271,0.959815 -0.37773,0 -0.945684,-0.549241 -0.967424,-0.935344 0,-0.0081 0.0082,-0.01631 0.0082,-0.02447 v -3.858303 h 3.847955 c 0.383164,0 0.967423,-0.576433 0.967423,-0.959816 0,-0.193051 -0.774482,-0.576433 -0.967423,-0.959816 -0.192941,-0.386102 -0.192941,-0.58459 0,-0.970692 0.192946,-0.383383 0.581546,-0.766765 0.967428,-0.959816 0.192941,-0.09517 0.573389,-0.144108 0.959271,-0.144108 z"
     inkscape:connector-curvature="0"
     style="opacity:0.2;fill:#dbe2e3;fill-opacity:1;fill-rule:evenodd;stroke:#586c70;stroke-width:0.44173506;stroke-miterlimit:4;stroke-opacity:1;stroke-dasharray:none" />
  <use
     clip-path="url(#clipPath3027)"
     height="19"
     width="19"
     id="use4887"
     xlink:href="#path3768"
     y="0"
     x="0"
     transform="translate(38,57)" />
  <path
     inkscape:connector-curvature="0"
     id="path4875"
     style="text-indent:0;text-transform:none;block-progression:tb;color:#000000;fill:#008000;stroke:#004000;stroke-width:0.44251913;stroke-miterlimit:4;stroke-opacity:1;stroke-dasharray:none"
     d="m 53.695199,79.158901 -2.080544,1.653035 c -1.094195,-0.91756 -2.49939,-1.474918 -4.025653,-1.474918 -3.449485,0 -6.284269,2.835012 -6.284269,6.284269 0,3.449486 2.835012,6.2202 6.284269,6.2202 2.704137,0 5.027962,-1.699685 5.906693,-4.097018 l -2.251548,-0.548626 c -0.602548,1.420904 -1.998873,2.401119 -3.655145,2.401119 -2.217142,0 -3.975949,-1.758692 -3.975949,-3.975948 0,-2.217142 1.758693,-4.040018 3.975949,-4.040018 0.822618,0 1.578477,0.254704 2.208796,0.684014 l -2.059157,1.638785 5.956626,1.10441 v -5.849692 z" />
  <path
     inkscape:connector-curvature="0"
     id="path4867"
     style="text-indent:0;text-transform:none;block-progression:tb;color:#000000;fill:#008000;stroke:#004000;stroke-width:0.44251913;stroke-miterlimit:4;stroke-opacity:1;stroke-dasharray:none"
     d="m 53.695199,98.158901 -2.080544,1.653035 c -1.094195,-0.91756 -2.49939,-1.474918 -4.025653,-1.474918 -3.449485,0 -6.284269,2.835012 -6.284269,6.284272 0,3.44948 2.835012,6.2202 6.284269,6.2202 2.704137,0 5.027962,-1.69969 5.906693,-4.09702 l -2.251548,-0.54863 c -0.602548,1.42091 -1.998873,2.40112 -3.655145,2.40112 -2.217142,0 -3.975949,-1.75869 -3.975949,-3.97595 0,-2.21714 1.758693,-4.04001 3.975949,-4.04001 0.822618,0 1.578477,0.2547 2.208796,0.68401 l -2.059157,1.63879 5.956626,1.1044 v -5.849687 z" />
  <path
     inkscape:connector-curvature="0"
     id="path4859"
     style="text-indent:0;text-transform:none;block-progression:tb;color:#000000;fill:#008000;stroke:#004000;stroke-width:0.44251913;stroke-miterlimit:4;stroke-opacity:1;stroke-dasharray:none"
     d="m 72.695199,3.1589006 -2.080544,1.653035 C 69.52046,3.8943757 68.115265,3.3370179 66.589002,3.3370179 c -3.449485,0 -6.284269,2.8350121 -6.284269,6.2842692 0,3.4494859 2.835012,6.2201999 6.284269,6.2201999 2.704137,0 5.027962,-1.699685 5.906693,-4.097018 l -2.251548,-0.548626 c -0.602548,1.420904 -1.998873,2.401119 -3.655145,2.401119 -2.217142,0 -3.975949,-1.758692 -3.975949,-3.9759483 0,-2.2171421 1.758693,-4.0400178 3.975949,-4.0400178 0.822618,0 1.578477,0.2547041 2.208796,0.6840144 l -2.059157,1.6387847 5.956626,1.1044099 v -5.849692 z" />
  <path
     id="path4861"
     d="m 65.316171,1.2208676 c 0.385882,0 0.774483,0.048942 0.967424,0.1441083 0.385882,0.1930509 0.769047,0.5764333 0.959271,0.959816 0.19294,0.3861017 0.19294,0.5845905 0,0.9706921 -0.190224,0.3833827 -0.959271,0.7667652 -0.959271,0.959816 0,0.3833826 0.576106,0.959816 0.959271,0.959816 h 3.847953 v 3.858297 c 0,0.3833825 0.58426,0.959815 0.967425,0.959815 0.192939,0 0.576104,-0.7694828 0.95927,-0.959815 0.385882,-0.1930507 0.584258,-0.1930507 0.970141,0 0.383166,0.1903322 0.76633,0.573714 0.959271,0.959815 0.192942,0.383383 0.192942,1.541688 0,1.92779 -0.192941,0.386101 -0.576105,0.766765 -0.959271,0.959817 -0.385883,0.19305 -0.584259,0.19305 -0.970141,0 -0.383166,-0.193052 -0.766331,-0.959817 -0.95927,-0.959817 -0.383165,0 -0.967425,0.576434 -0.967425,0.959817 v 3.858297 h -3.847953 c -0.383165,0 -0.959271,-0.573714 -0.959271,-0.959818 0,-0.19305 0.769047,-0.58459 0.959271,-0.967972 0.19294,-0.386102 0.19294,-0.576432 0,-0.959817 -0.190224,-0.386099 -0.573389,-0.77764 -0.959271,-0.97069 -0.383165,-0.193052 -1.540813,-0.193052 -1.926695,0 -0.385882,0.19305 -0.774482,0.584591 -0.967423,0.97069 -0.192942,0.383385 -0.192942,0.573715 0,0.959817 0.192941,0.383382 0.967423,0.774922 0.967423,0.967972 0,0.386104 -0.584259,0.959818 -0.967423,0.959818 h -3.847955 v -3.858297 c 0,-0.0083 -0.0082,-0.01632 -0.0082,-0.02446 0.02446,-0.386101 0.589694,-0.935345 0.967424,-0.935345 0.192941,0 0.576106,0.766766 0.959271,0.959816 0.385882,0.193051 0.584258,0.193051 0.970141,0 0.383165,-0.19305 0.76633,-0.573714 0.959271,-0.959816 0.192941,-0.386101 0.192941,-1.544406 0,-1.927789 -0.192946,-0.38611 -0.576111,-0.7694912 -0.959276,-0.9598234 -0.385883,-0.1930507 -0.584259,-0.1930507 -0.970141,0 -0.383165,0.1903322 -0.76633,0.9598154 -0.959271,0.9598154 -0.37773,0 -0.945684,-0.5492415 -0.967424,-0.9353444 0,-0.00812 0.0082,-0.016313 0.0082,-0.02447 V 5.215116 h 3.847955 c 0.383164,0 0.967423,-0.5764334 0.967423,-0.959816 0,-0.1930508 -0.774482,-0.5764333 -0.967423,-0.959816 -0.192941,-0.3861016 -0.192941,-0.5845904 0,-0.9706921 0.192946,-0.3833827 0.581546,-0.7667651 0.967428,-0.959816 0.192941,-0.095166 0.573389,-0.1441083 0.959271,-0.1441083 z"
     inkscape:connector-curvature="0"
     style="opacity:0.87999998;fill:#dbe2e3;fill-opacity:1;fill-rule:evenodd;stroke:#586c70;stroke-width:0.44173506;stroke-miterlimit:4;stroke-opacity:1;stroke-dasharray:none" />
  <use
     clip-path="url(#clipPath3027)"
     height="19"
     width="19"
     id="use4863"
     xlink:href="#path3768"
     y="0"
     x="0"
     transform="translate(57,0)" />
  <path
     inkscape:connector-curvature="0"
     id="path4851"
     style="text-indent:0;text-transform:none;block-progression:tb;color:#000000;fill:#008000;stroke:#004000;stroke-width:0.44251913;stroke-miterlimit:4;stroke-opacity:1;stroke-dasharray:none"
     d="m 72.695199,22.158901 -2.080544,1.653035 c -1.094195,-0.91756 -2.49939,-1.474918 -4.025653,-1.474918 -3.449485,0 -6.284269,2.835012 -6.284269,6.284269 0,3.449486 2.835012,6.2202 6.284269,6.2202 2.704137,0 5.027962,-1.699685 5.906693,-4.097018 l -2.251548,-0.548626 c -0.602548,1.420904 -1.998873,2.401119 -3.655145,2.401119 -2.217142,0 -3.975949,-1.758692 -3.975949,-3.975948 0,-2.217142 1.758693,-4.040018 3.975949,-4.040018 0.822618,0 1.578477,0.254704 2.208796,0.684014 l -2.059157,1.638785 5.956626,1.10441 v -5.849692 z" />
  <path
     id="path4853"
     d="m 65.316171,20.220868 c 0.385882,0 0.774483,0.04894 0.967424,0.144108 0.385882,0.193051 0.769047,0.576433 0.959271,0.959816 0.19294,0.386102 0.19294,0.58459 0,0.970692 -0.190224,0.383383 -0.959271,0.766765 -0.959271,0.959816 0,0.383383 0.576106,0.959816 0.959271,0.959816 h 3.847953 v 3.858297 c 0,0.383382 0.58426,0.959815 0.967425,0.959815 0.192939,0 0.576104,-0.769483 0.95927,-0.959815 0.385882,-0.193051 0.584258,-0.193051 0.970141,0 0.383166,0.190332 0.76633,0.573714 0.959271,0.959815 0.192942,0.383383 0.192942,1.541688 0,1.92779 -0.192941,0.386101 -0.576105,0.766765 -0.959271,0.959817 -0.385883,0.19305 -0.584259,0.19305 -0.970141,0 -0.383166,-0.193052 -0.766331,-0.959817 -0.95927,-0.959817 -0.383165,0 -0.967425,0.576434 -0.967425,0.959817 v 3.858297 h -3.847953 c -0.383165,0 -0.959271,-0.573714 -0.959271,-0.959818 0,-0.19305 0.769047,-0.58459 0.959271,-0.967972 0.19294,-0.386102 0.19294,-0.576432 0,-0.959817 -0.190224,-0.386099 -0.573389,-0.77764 -0.959271,-0.97069 -0.383165,-0.193052 -1.540813,-0.193052 -1.926695,0 -0.385882,0.19305 -0.774482,0.584591 -0.967423,0.97069 -0.192942,0.383385 -0.192942,0.573715 0,0.959817 0.192941,0.383382 0.967423,0.774922 0.967423,0.967972 0,0.386104 -0.584259,0.959818 -0.967423,0.959818 h -3.847955 v -3.858297 c 0,-0.0083 -0.0082,-0.01632 -0.0082,-0.02446 0.02446,-0.386101 0.589694,-0.935345 0.967424,-0.935345 0.192941,0 0.576106,0.766766 0.959271,0.959816 0.385882,0.193051 0.584258,0.193051 0.970141,0 0.383165,-0.19305 0.76633,-0.573714 0.959271,-0.959816 0.192941,-0.386101 0.192941,-1.544406 0,-1.927789 -0.192946,-0.38611 -0.576111,-0.769491 -0.959276,-0.959823 -0.385883,-0.193051 -0.584259,-0.193051 -0.970141,0 -0.383165,0.190332 -0.76633,0.959815 -0.959271,0.959815 -0.37773,0 -0.945684,-0.549242 -0.967424,-0.935344 0,-0.0081 0.0082,-0.01631 0.0082,-0.02447 v -3.858303 h 3.847955 c 0.383164,0 0.967423,-0.576433 0.967423,-0.959816 0,-0.193051 -0.774482,-0.576433 -0.967423,-0.959816 -0.192941,-0.386102 -0.192941,-0.58459 0,-0.970692 0.192946,-0.383383 0.581546,-0.766765 0.967428,-0.959816 0.192941,-0.09517 0.573389,-0.144108 0.959271,-0.144108 z"
     inkscape:connector-curvature="0"
     style="opacity:0.63999999;fill:#dbe2e3;fill-opacity:1;fill-rule:evenodd;stroke:#586c70;stroke-width:0.44173506;stroke-miterlimit:4;stroke-opacity:1;stroke-dasharray:none" />
  <use
     clip-path="url(#clipPath3027)"
     height="19"
     width="19"
     id="use4855"
     xlink:href="#path3768"
     y="0"
     x="0"
     transform="translate(57,19)" />
  <path
     inkscape:connector-curvature="0"
     id="path4843"
     style="text-indent:0;text-transform:none;block-progression:tb;color:#000000;fill:#008000;stroke:#004000;stroke-width:0.44251913;stroke-miterlimit:4;stroke-opacity:1;stroke-dasharray:none"
     d="m 72.695199,41.158901 -2.080544,1.653035 c -1.094195,-0.91756 -2.49939,-1.474918 -4.025653,-1.474918 -3.449485,0 -6.284269,2.835012 -6.284269,6.284269 0,3.449486 2.835012,6.2202 6.284269,6.2202 2.704137,0 5.027962,-1.699685 5.906693,-4.097018 l -2.251548,-0.548626 c -0.602548,1.420904 -1.998873,2.401119 -3.655145,2.401119 -2.217142,0 -3.975949,-1.758692 -3.975949,-3.975948 0,-2.217142 1.758693,-4.040018 3.975949,-4.040018 0.822618,0 1.578477,0.254704 2.208796,0.684014 l -2.059157,1.638785 5.956626,1.10441 v -5.849692 z" />
  <path
     id="path4845"
     d="m 65.316171,39.220868 c 0.385882,0 0.774483,0.04894 0.967424,0.144108 0.385882,0.193051 0.769047,0.576433 0.959271,0.959816 0.19294,0.386102 0.19294,0.58459 0,0.970692 -0.190224,0.383383 -0.959271,0.766765 -0.959271,0.959816 0,0.383383 0.576106,0.959816 0.959271,0.959816 h 3.847953 v 3.858297 c 0,0.383382 0.58426,0.959815 0.967425,0.959815 0.192939,0 0.576104,-0.769483 0.95927,-0.959815 0.385882,-0.193051 0.584258,-0.193051 0.970141,0 0.383166,0.190332 0.76633,0.573714 0.959271,0.959815 0.192942,0.383383 0.192942,1.541688 0,1.92779 -0.192941,0.386101 -0.576105,0.766765 -0.959271,0.959817 -0.385883,0.19305 -0.584259,0.19305 -0.970141,0 -0.383166,-0.193052 -0.766331,-0.959817 -0.95927,-0.959817 -0.383165,0 -0.967425,0.576434 -0.967425,0.959817 v 3.858297 h -3.847953 c -0.383165,0 -0.959271,-0.573714 -0.959271,-0.959818 0,-0.19305 0.769047,-0.58459 0.959271,-0.967972 0.19294,-0.386102 0.19294,-0.576432 0,-0.959817 -0.190224,-0.386099 -0.573389,-0.77764 -0.959271,-0.97069 -0.383165,-0.193052 -1.540813,-0.193052 -1.926695,0 -0.385882,0.19305 -0.774482,0.584591 -0.967423,0.97069 -0.192942,0.383385 -0.192942,0.573715 0,0.959817 0.192941,0.383382 0.967423,0.774922 0.967423,0.967972 0,0.386104 -0.584259,0.959818 -0.967423,0.959818 h -3.847955 v -3.858297 c 0,-0.0083 -0.0082,-0.01632 -0.0082,-0.02446 0.02446,-0.386101 0.589694,-0.935345 0.967424,-0.935345 0.192941,0 0.576106,0.766766 0.959271,0.959816 0.385882,0.193051 0.584258,0.193051 0.970141,0 0.383165,-0.19305 0.76633,-0.573714 0.959271,-0.959816 0.192941,-0.386101 0.192941,-1.544406 0,-1.927789 -0.192946,-0.38611 -0.576111,-0.769491 -0.959276,-0.959823 -0.385883,-0.193051 -0.584259,-0.193051 -0.970141,0 -0.383165,0.190332 -0.76633,0.959815 -0.959271,0.959815 -0.37773,0 -0.945684,-0.549241 -0.967424,-0.935344 0,-0.0081 0.0082,-0.01631 0.0082,-0.02447 v -3.858303 h 3.847955 c 0.383164,0 0.967423,-0.576433 0.967423,-0.959816 0,-0.193051 -0.774482,-0.576433 -0.967423,-0.959816 -0.192941,-0.386102 -0.192941,-0.58459 0,-0.970692 0.192946,-0.383383 0.581546,-0.766765 0.967428,-0.959816 0.192941,-0.09517 0.573389,-0.144108 0.959271,-0.144108 z"
     inkscape:connector-curvature="0"
     style="opacity:0.4;fill:#dbe2e3;fill-opacity:1;fill-rule:evenodd;stroke:#586c70;stroke-width:0.44173506;stroke-miterlimit:4;stroke-opacity:1;stroke-dasharray:none" />
  <use
     clip-path="url(#clipPath3027)"
     height="19"
     width="19"
     id="use4847"
     xlink:href="#path3768"
     y="0"
     x="0"
     transform="translate(57,38)" />
  <path
     inkscape:connector-curvature="0"
     id="path4835"
     style="text-indent:0;text-transform:none;block-progression:tb;color:#000000;fill:#008000;stroke:#004000;stroke-width:0.44251913;stroke-miterlimit:4;stroke-opacity:1;stroke-dasharray:none"
     d="m 72.695199,60.158901 -2.080544,1.653035 c -1.094195,-0.91756 -2.49939,-1.474918 -4.025653,-1.474918 -3.449485,0 -6.284269,2.835012 -6.284269,6.284269 0,3.449486 2.835012,6.2202 6.284269,6.2202 2.704137,0 5.027962,-1.699685 5.906693,-4.097018 l -2.251548,-0.548626 c -0.602548,1.420904 -1.998873,2.401119 -3.655145,2.401119 -2.217142,0 -3.975949,-1.758692 -3.975949,-3.975948 0,-2.217142 1.758693,-4.040018 3.975949,-4.040018 0.822618,0 1.578477,0.254704 2.208796,0.684014 l -2.059157,1.638785 5.956626,1.10441 v -5.849692 z" />
  <path
     id="path4837"
     d="m 65.316171,58.220868 c 0.385882,0 0.774483,0.04894 0.967424,0.144108 0.385882,0.193051 0.769047,0.576433 0.959271,0.959816 0.19294,0.386102 0.19294,0.58459 0,0.970692 -0.190224,0.383383 -0.959271,0.766765 -0.959271,0.959816 0,0.383383 0.576106,0.959816 0.959271,0.959816 h 3.847953 v 3.858297 c 0,0.383382 0.58426,0.959815 0.967425,0.959815 0.192939,0 0.576104,-0.769483 0.95927,-0.959815 0.385882,-0.193051 0.584258,-0.193051 0.970141,0 0.383166,0.190332 0.76633,0.573714 0.959271,0.959815 0.192942,0.383383 0.192942,1.541688 0,1.92779 -0.192941,0.386101 -0.576105,0.766765 -0.959271,0.959817 -0.385883,0.19305 -0.584259,0.19305 -0.970141,0 -0.383166,-0.193052 -0.766331,-0.959817 -0.95927,-0.959817 -0.383165,0 -0.967425,0.576434 -0.967425,0.959817 v 3.858297 h -3.847953 c -0.383165,0 -0.959271,-0.573714 -0.959271,-0.959818 0,-0.19305 0.769047,-0.58459 0.959271,-0.967972 0.19294,-0.386102 0.19294,-0.576432 0,-0.959817 -0.190224,-0.386099 -0.573389,-0.77764 -0.959271,-0.97069 -0.383165,-0.193052 -1.540813,-0.193052 -1.926695,0 -0.385882,0.19305 -0.774482,0.584591 -0.967423,0.97069 -0.192942,0.383385 -0.192942,0.573715 0,0.959817 0.192941,0.383382 0.967423,0.774922 0.967423,0.967972 0,0.386104 -0.584259,0.959818 -0.967423,0.959818 h -3.847955 v -3.858297 c 0,-0.0083 -0.0082,-0.01632 -0.0082,-0.02446 0.02446,-0.386101 0.589694,-0.935345 0.967424,-0.935345 0.192941,0 0.576106,0.766766 0.959271,0.959816 0.385882,0.193051 0.584258,0.193051 0.970141,0 0.383165,-0.19305 0.76633,-0.573714 0.959271,-0.959816 0.192941,-0.386101 0.192941,-1.544406 0,-1.927789 -0.192946,-0.38611 -0.576111,-0.769491 -0.959276,-0.959823 -0.385883,-0.193051 -0.584259,-0.193051 -0.970141,0 -0.383165,0.190332 -0.76633,0.959815 -0.959271,0.959815 -0.37773,0 -0.945684,-0.549241 -0.967424,-0.935344 0,-0.0081 0.0082,-0.01631 0.0082,-0.02447 v -3.858303 h 3.847955 c 0.383164,0 0.967423,-0.576433 0.967423,-0.959816 0,-0.193051 -0.774482,-0.576433 -0.967423,-0.959816 -0.192941,-0.386102 -0.192941,-0.58459 0,-0.970692 0.192946,-0.383383 0.581546,-0.766765 0.967428,-0.959816 0.192941,-0.09517 0.573389,-0.144108 0.959271,-0.144108 z"
     inkscape:connector-curvature="0"
     style="opacity:0.16000001;fill:#dbe2e3;fill-opacity:1;fill-rule:evenodd;stroke:#586c70;stroke-width:0.44173506;stroke-miterlimit:4;stroke-opacity:1;stroke-dasharray:none" />
  <use
     clip-path="url(#clipPath3027)"
     height="19"
     width="19"
     id="use4839"
     xlink:href="#path3768"
     y="0"
     x="0"
     transform="translate(57,57)" />
  <path
     inkscape:connector-curvature="0"
     id="path4827"
     style="text-indent:0;text-transform:none;block-progression:tb;color:#000000;fill:#008000;stroke:#004000;stroke-width:0.44251913;stroke-miterlimit:4;stroke-opacity:1;stroke-dasharray:none"
     d="m 72.695199,79.158901 -2.080544,1.653035 c -1.094195,-0.91756 -2.49939,-1.474918 -4.025653,-1.474918 -3.449485,0 -6.284269,2.835012 -6.284269,6.284269 0,3.449486 2.835012,6.2202 6.284269,6.2202 2.704137,0 5.027962,-1.699685 5.906693,-4.097018 l -2.251548,-0.548626 c -0.602548,1.420904 -1.998873,2.401119 -3.655145,2.401119 -2.217142,0 -3.975949,-1.758692 -3.975949,-3.975948 0,-2.217142 1.758693,-4.040018 3.975949,-4.040018 0.822618,0 1.578477,0.254704 2.208796,0.684014 l -2.059157,1.638785 5.956626,1.10441 v -5.849692 z" />
  <path
     inkscape:connector-curvature="0"
     id="path4819"
     style="text-indent:0;text-transform:none;block-progression:tb;color:#000000;fill:#008000;stroke:#004000;stroke-width:0.44251913;stroke-miterlimit:4;stroke-opacity:1;stroke-dasharray:none"
     d="m 72.695199,98.158901 -2.080544,1.653035 c -1.094195,-0.91756 -2.49939,-1.474918 -4.025653,-1.474918 -3.449485,0 -6.284269,2.835012 -6.284269,6.284272 0,3.44948 2.835012,6.2202 6.284269,6.2202 2.704137,0 5.027962,-1.69969 5.906693,-4.09702 l -2.251548,-0.54863 c -0.602548,1.42091 -1.998873,2.40112 -3.655145,2.40112 -2.217142,0 -3.975949,-1.75869 -3.975949,-3.97595 0,-2.21714 1.758693,-4.04001 3.975949,-4.04001 0.822618,0 1.578477,0.2547 2.208796,0.68401 l -2.059157,1.63879 5.956626,1.1044 v -5.849687 z" />
  <path
     inkscape:connector-curvature="0"
     id="path4811"
     style="text-indent:0;text-transform:none;block-progression:tb;color:#000000;fill:#008000;stroke:#004000;stroke-width:0.44251913;stroke-miterlimit:4;stroke-opacity:1;stroke-dasharray:none"
     d="m 91.695199,3.1589006 -2.080544,1.653035 C 88.52046,3.8943757 87.115265,3.3370179 85.589002,3.3370179 c -3.449485,0 -6.284269,2.8350121 -6.284269,6.2842692 0,3.4494859 2.835012,6.2201999 6.284269,6.2201999 2.704137,0 5.027962,-1.699685 5.906693,-4.097018 l -2.251548,-0.548626 c -0.602548,1.420904 -1.998873,2.401119 -3.655145,2.401119 -2.217142,0 -3.975948,-1.758692 -3.975948,-3.9759483 0,-2.2171421 1.758692,-4.0400178 3.975948,-4.0400178 0.822618,0 1.578477,0.2547041 2.208796,0.6840144 l -2.059157,1.6387847 5.956626,1.1044099 v -5.849692 z" />
  <path
     id="path4813"
     d="m 84.316171,1.2208676 c 0.385882,0 0.774483,0.048942 0.967424,0.1441083 0.385882,0.1930509 0.769047,0.5764333 0.959271,0.959816 0.19294,0.3861017 0.19294,0.5845905 0,0.9706921 -0.190224,0.3833827 -0.959271,0.7667652 -0.959271,0.959816 0,0.3833826 0.576106,0.959816 0.959271,0.959816 h 3.847953 v 3.858297 c 0,0.3833825 0.58426,0.959815 0.967425,0.959815 0.192939,0 0.576104,-0.7694828 0.95927,-0.959815 0.385882,-0.1930507 0.584258,-0.1930507 0.970141,0 0.383166,0.1903322 0.76633,0.573714 0.959271,0.959815 0.192942,0.383383 0.192942,1.541688 0,1.92779 -0.192941,0.386101 -0.576105,0.766765 -0.959271,0.959817 -0.385883,0.19305 -0.584259,0.19305 -0.970141,0 -0.383166,-0.193052 -0.766331,-0.959817 -0.95927,-0.959817 -0.383165,0 -0.967425,0.576434 -0.967425,0.959817 v 3.858297 h -3.847953 c -0.383165,0 -0.959271,-0.573714 -0.959271,-0.959818 0,-0.19305 0.769047,-0.58459 0.959271,-0.967972 0.19294,-0.386102 0.19294,-0.576432 0,-0.959817 -0.190224,-0.386099 -0.573389,-0.77764 -0.959271,-0.97069 -0.383165,-0.193052 -1.540813,-0.193052 -1.926695,0 -0.385882,0.19305 -0.774482,0.584591 -0.967423,0.97069 -0.192942,0.383385 -0.192942,0.573715 0,0.959817 0.192941,0.383382 0.967423,0.774922 0.967423,0.967972 0,0.386104 -0.584259,0.959818 -0.967423,0.959818 h -3.847955 v -3.858297 c 0,-0.0083 -0.0082,-0.01632 -0.0082,-0.02446 0.02446,-0.386101 0.589694,-0.935345 0.967424,-0.935345 0.192941,0 0.576106,0.766766 0.959271,0.959816 0.385882,0.193051 0.584258,0.193051 0.970141,0 0.383165,-0.19305 0.76633,-0.573714 0.959271,-0.959816 0.192941,-0.386101 0.192941,-1.544406 0,-1.927789 -0.192946,-0.38611 -0.576111,-0.7694912 -0.959276,-0.9598234 -0.385883,-0.1930507 -0.584259,-0.1930507 -0.970141,0 -0.383165,0.1903322 -0.76633,0.9598154 -0.959271,0.9598154 -0.37773,0 -0.945684,-0.5492415 -0.967424,-0.9353444 0,-0.00812 0.0082,-0.016313 0.0082,-0.02447 V 5.215116 h 3.847955 c 0.383164,0 0.967423,-0.5764334 0.967423,-0.959816 0,-0.1930508 -0.774482,-0.5764333 -0.967423,-0.959816 -0.192941,-0.3861016 -0.192941,-0.5845904 0,-0.9706921 0.192946,-0.3833827 0.581546,-0.7667651 0.967428,-0.959816 0.192941,-0.095166 0.573389,-0.1441083 0.959271,-0.1441083 z"
     inkscape:connector-curvature="0"
     style="opacity:0.83999999;fill:#dbe2e3;fill-opacity:1;fill-rule:evenodd;stroke:#586c70;stroke-width:0.44173506;stroke-miterlimit:4;stroke-opacity:1;stroke-dasharray:none" />
  <use
     clip-path="url(#clipPath3027)"
     height="19"
     width="19"
     id="use4815"
     xlink:href="#path3768"
     y="0"
     x="0"
     transform="translate(76,0)" />
  <path
     inkscape:connector-curvature="0"
     id="path4803"
     style="text-indent:0;text-transform:none;block-progression:tb;color:#000000;fill:#008000;stroke:#004000;stroke-width:0.44251913;stroke-miterlimit:4;stroke-opacity:1;stroke-dasharray:none"
     d="m 91.695199,22.158901 -2.080544,1.653035 c -1.094195,-0.91756 -2.49939,-1.474918 -4.025653,-1.474918 -3.449485,0 -6.284269,2.835012 -6.284269,6.284269 0,3.449486 2.835012,6.2202 6.284269,6.2202 2.704137,0 5.027962,-1.699685 5.906693,-4.097018 l -2.251548,-0.548626 c -0.602548,1.420904 -1.998873,2.401119 -3.655145,2.401119 -2.217142,0 -3.975948,-1.758692 -3.975948,-3.975948 0,-2.217142 1.758692,-4.040018 3.975948,-4.040018 0.822618,0 1.578477,0.254704 2.208796,0.684014 l -2.059157,1.638785 5.956626,1.10441 v -5.849692 z" />
  <path
     id="path4805"
     d="m 84.316171,20.220868 c 0.385882,0 0.774483,0.04894 0.967424,0.144108 0.385882,0.193051 0.769047,0.576433 0.959271,0.959816 0.19294,0.386102 0.19294,0.58459 0,0.970692 -0.190224,0.383383 -0.959271,0.766765 -0.959271,0.959816 0,0.383383 0.576106,0.959816 0.959271,0.959816 h 3.847953 v 3.858297 c 0,0.383382 0.58426,0.959815 0.967425,0.959815 0.192939,0 0.576104,-0.769483 0.95927,-0.959815 0.385882,-0.193051 0.584258,-0.193051 0.970141,0 0.383166,0.190332 0.76633,0.573714 0.959271,0.959815 0.192942,0.383383 0.192942,1.541688 0,1.92779 -0.192941,0.386101 -0.576105,0.766765 -0.959271,0.959817 -0.385883,0.19305 -0.584259,0.19305 -0.970141,0 -0.383166,-0.193052 -0.766331,-0.959817 -0.95927,-0.959817 -0.383165,0 -0.967425,0.576434 -0.967425,0.959817 v 3.858297 h -3.847953 c -0.383165,0 -0.959271,-0.573714 -0.959271,-0.959818 0,-0.19305 0.769047,-0.58459 0.959271,-0.967972 0.19294,-0.386102 0.19294,-0.576432 0,-0.959817 -0.190224,-0.386099 -0.573389,-0.77764 -0.959271,-0.97069 -0.383165,-0.193052 -1.540813,-0.193052 -1.926695,0 -0.385882,0.19305 -0.774482,0.584591 -0.967423,0.97069 -0.192942,0.383385 -0.192942,0.573715 0,0.959817 0.192941,0.383382 0.967423,0.774922 0.967423,0.967972 0,0.386104 -0.584259,0.959818 -0.967423,0.959818 h -3.847955 v -3.858297 c 0,-0.0083 -0.0082,-0.01632 -0.0082,-0.02446 0.02446,-0.386101 0.589694,-0.935345 0.967424,-0.935345 0.192941,0 0.576106,0.766766 0.959271,0.959816 0.385882,0.193051 0.584258,0.193051 0.970141,0 0.383165,-0.19305 0.76633,-0.573714 0.959271,-0.959816 0.192941,-0.386101 0.192941,-1.544406 0,-1.927789 -0.192946,-0.38611 -0.576111,-0.769491 -0.959276,-0.959823 -0.385883,-0.193051 -0.584259,-0.193051 -0.970141,0 -0.383165,0.190332 -0.76633,0.959815 -0.959271,0.959815 -0.37773,0 -0.945684,-0.549242 -0.967424,-0.935344 0,-0.0081 0.0082,-0.01631 0.0082,-0.02447 v -3.858303 h 3.847955 c 0.383164,0 0.967423,-0.576433 0.967423,-0.959816 0,-0.193051 -0.774482,-0.576433 -0.967423,-0.959816 -0.192941,-0.386102 -0.192941,-0.58459 0,-0.970692 0.192946,-0.383383 0.581546,-0.766765 0.967428,-0.959816 0.192941,-0.09517 0.573389,-0.144108 0.959271,-0.144108 z"
     inkscape:connector-curvature="0"
     style="opacity:0.6;fill:#dbe2e3;fill-opacity:1;fill-rule:evenodd;stroke:#586c70;stroke-width:0.44173506;stroke-miterlimit:4;stroke-opacity:1;stroke-dasharray:none" />
  <use
     clip-path="url(#clipPath3027)"
     height="19"
     width="19"
     id="use4807"
     xlink:href="#path3768"
     y="0"
     x="0"
     transform="translate(76,19)" />
  <path
     inkscape:connector-curvature="0"
     id="path4795"
     style="text-indent:0;text-transform:none;block-progression:tb;color:#000000;fill:#008000;stroke:#004000;stroke-width:0.44251913;stroke-miterlimit:4;stroke-opacity:1;stroke-dasharray:none"
     d="m 91.695199,41.158901 -2.080544,1.653035 c -1.094195,-0.91756 -2.49939,-1.474918 -4.025653,-1.474918 -3.449485,0 -6.284269,2.835012 -6.284269,6.284269 0,3.449486 2.835012,6.2202 6.284269,6.2202 2.704137,0 5.027962,-1.699685 5.906693,-4.097018 l -2.251548,-0.548626 c -0.602548,1.420904 -1.998873,2.401119 -3.655145,2.401119 -2.217142,0 -3.975948,-1.758692 -3.975948,-3.975948 0,-2.217142 1.758692,-4.040018 3.975948,-4.040018 0.822618,0 1.578477,0.254704 2.208796,0.684014 l -2.059157,1.638785 5.956626,1.10441 v -5.849692 z" />
  <path
     id="path4797"
     d="m 84.316171,39.220868 c 0.385882,0 0.774483,0.04894 0.967424,0.144108 0.385882,0.193051 0.769047,0.576433 0.959271,0.959816 0.19294,0.386102 0.19294,0.58459 0,0.970692 -0.190224,0.383383 -0.959271,0.766765 -0.959271,0.959816 0,0.383383 0.576106,0.959816 0.959271,0.959816 h 3.847953 v 3.858297 c 0,0.383382 0.58426,0.959815 0.967425,0.959815 0.192939,0 0.576104,-0.769483 0.95927,-0.959815 0.385882,-0.193051 0.584258,-0.193051 0.970141,0 0.383166,0.190332 0.76633,0.573714 0.959271,0.959815 0.192942,0.383383 0.192942,1.541688 0,1.92779 -0.192941,0.386101 -0.576105,0.766765 -0.959271,0.959817 -0.385883,0.19305 -0.584259,0.19305 -0.970141,0 -0.383166,-0.193052 -0.766331,-0.959817 -0.95927,-0.959817 -0.383165,0 -0.967425,0.576434 -0.967425,0.959817 v 3.858297 h -3.847953 c -0.383165,0 -0.959271,-0.573714 -0.959271,-0.959818 0,-0.19305 0.769047,-0.58459 0.959271,-0.967972 0.19294,-0.386102 0.19294,-0.576432 0,-0.959817 -0.190224,-0.386099 -0.573389,-0.77764 -0.959271,-0.97069 -0.383165,-0.193052 -1.540813,-0.193052 -1.926695,0 -0.385882,0.19305 -0.774482,0.584591 -0.967423,0.97069 -0.192942,0.383385 -0.192942,0.573715 0,0.959817 0.192941,0.383382 0.967423,0.774922 0.967423,0.967972 0,0.386104 -0.584259,0.959818 -0.967423,0.959818 h -3.847955 v -3.858297 c 0,-0.0083 -0.0082,-0.01632 -0.0082,-0.02446 0.02446,-0.386101 0.589694,-0.935345 0.967424,-0.935345 0.192941,0 0.576106,0.766766 0.959271,0.959816 0.385882,0.193051 0.584258,0.193051 0.970141,0 0.383165,-0.19305 0.76633,-0.573714 0.959271,-0.959816 0.192941,-0.386101 0.192941,-1.544406 0,-1.927789 -0.192946,-0.38611 -0.576111,-0.769491 -0.959276,-0.959823 -0.385883,-0.193051 -0.584259,-0.193051 -0.970141,0 -0.383165,0.190332 -0.76633,0.959815 -0.959271,0.959815 -0.37773,0 -0.945684,-0.549241 -0.967424,-0.935344 0,-0.0081 0.0082,-0.01631 0.0082,-0.02447 v -3.858303 h 3.847955 c 0.383164,0 0.967423,-0.576433 0.967423,-0.959816 0,-0.193051 -0.774482,-0.576433 -0.967423,-0.959816 -0.192941,-0.386102 -0.192941,-0.58459 0,-0.970692 0.192946,-0.383383 0.581546,-0.766765 0.967428,-0.959816 0.192941,-0.09517 0.573389,-0.144108 0.959271,-0.144108 z"
     inkscape:connector-curvature="0"
     style="opacity:0.36000001;fill:#dbe2e3;fill-opacity:1;fill-rule:evenodd;stroke:#586c70;stroke-width:0.44173506;stroke-miterlimit:4;stroke-opacity:1;stroke-dasharray:none" />
  <use
     clip-path="url(#clipPath3027)"
     height="19"
     width="19"
     id="use4799"
     xlink:href="#path3768"
     y="0"
     x="0"
     transform="translate(76,38)" />
  <path
     inkscape:connector-curvature="0"
     id="path4787"
     style="text-indent:0;text-transform:none;block-progression:tb;color:#000000;fill:#008000;stroke:#004000;stroke-width:0.44251913;stroke-miterlimit:4;stroke-opacity:1;stroke-dasharray:none"
     d="m 91.695199,60.158901 -2.080544,1.653035 c -1.094195,-0.91756 -2.49939,-1.474918 -4.025653,-1.474918 -3.449485,0 -6.284269,2.835012 -6.284269,6.284269 0,3.449486 2.835012,6.2202 6.284269,6.2202 2.704137,0 5.027962,-1.699685 5.906693,-4.097018 l -2.251548,-0.548626 c -0.602548,1.420904 -1.998873,2.401119 -3.655145,2.401119 -2.217142,0 -3.975948,-1.758692 -3.975948,-3.975948 0,-2.217142 1.758692,-4.040018 3.975948,-4.040018 0.822618,0 1.578477,0.254704 2.208796,0.684014 l -2.059157,1.638785 5.956626,1.10441 v -5.849692 z" />
  <path
     id="path4789"
     d="m 84.316171,58.220868 c 0.385882,0 0.774483,0.04894 0.967424,0.144108 0.385882,0.193051 0.769047,0.576433 0.959271,0.959816 0.19294,0.386102 0.19294,0.58459 0,0.970692 -0.190224,0.383383 -0.959271,0.766765 -0.959271,0.959816 0,0.383383 0.576106,0.959816 0.959271,0.959816 h 3.847953 v 3.858297 c 0,0.383382 0.58426,0.959815 0.967425,0.959815 0.192939,0 0.576104,-0.769483 0.95927,-0.959815 0.385882,-0.193051 0.584258,-0.193051 0.970141,0 0.383166,0.190332 0.76633,0.573714 0.959271,0.959815 0.192942,0.383383 0.192942,1.541688 0,1.92779 -0.192941,0.386101 -0.576105,0.766765 -0.959271,0.959817 -0.385883,0.19305 -0.584259,0.19305 -0.970141,0 -0.383166,-0.193052 -0.766331,-0.959817 -0.95927,-0.959817 -0.383165,0 -0.967425,0.576434 -0.967425,0.959817 v 3.858297 h -3.847953 c -0.383165,0 -0.959271,-0.573714 -0.959271,-0.959818 0,-0.19305 0.769047,-0.58459 0.959271,-0.967972 0.19294,-0.386102 0.19294,-0.576432 0,-0.959817 -0.190224,-0.386099 -0.573389,-0.77764 -0.959271,-0.97069 -0.383165,-0.193052 -1.540813,-0.193052 -1.926695,0 -0.385882,0.19305 -0.774482,0.584591 -0.967423,0.97069 -0.192942,0.383385 -0.192942,0.573715 0,0.959817 0.192941,0.383382 0.967423,0.774922 0.967423,0.967972 0,0.386104 -0.584259,0.959818 -0.967423,0.959818 h -3.847955 v -3.858297 c 0,-0.0083 -0.0082,-0.01632 -0.0082,-0.02446 0.02446,-0.386101 0.589694,-0.935345 0.967424,-0.935345 0.192941,0 0.576106,0.766766 0.959271,0.959816 0.385882,0.193051 0.584258,0.193051 0.970141,0 0.383165,-0.19305 0.76633,-0.573714 0.959271,-0.959816 0.192941,-0.386101 0.192941,-1.544406 0,-1.927789 -0.192946,-0.38611 -0.576111,-0.769491 -0.959276,-0.959823 -0.385883,-0.193051 -0.584259,-0.193051 -0.970141,0 -0.383165,0.190332 -0.76633,0.959815 -0.959271,0.959815 -0.37773,0 -0.945684,-0.549241 -0.967424,-0.935344 0,-0.0081 0.0082,-0.01631 0.0082,-0.02447 v -3.858303 h 3.847955 c 0.383164,0 0.967423,-0.576433 0.967423,-0.959816 0,-0.193051 -0.774482,-0.576433 -0.967423,-0.959816 -0.192941,-0.386102 -0.192941,-0.58459 0,-0.970692 0.192946,-0.383383 0.581546,-0.766765 0.967428,-0.959816 0.192941,-0.09517 0.573389,-0.144108 0.959271,-0.144108 z"
     inkscape:connector-curvature="0"
     style="opacity:0.12000002;fill:#dbe2e3;fill-opacity:1;fill-rule:evenodd;stroke:#586c70;stroke-width:0.44173506;stroke-miterlimit:4;stroke-opacity:1;stroke-dasharray:none" />
  <use
     clip-path="url(#clipPath3027)"
     height="19"
     width="19"
     id="use4791"
     xlink:href="#path3768"
     y="0"
     x="0"
     transform="translate(76,57)" />
  <path
     inkscape:connector-curvature="0"
     id="path4779"
     style="text-indent:0;text-transform:none;block-progression:tb;color:#000000;fill:#008000;stroke:#004000;stroke-width:0.44251913;stroke-miterlimit:4;stroke-opacity:1;stroke-dasharray:none"
     d="m 91.695199,79.158901 -2.080544,1.653035 c -1.094195,-0.91756 -2.49939,-1.474918 -4.025653,-1.474918 -3.449485,0 -6.284269,2.835012 -6.284269,6.284269 0,3.449486 2.835012,6.2202 6.284269,6.2202 2.704137,0 5.027962,-1.699685 5.906693,-4.097018 l -2.251548,-0.548626 c -0.602548,1.420904 -1.998873,2.401119 -3.655145,2.401119 -2.217142,0 -3.975948,-1.758692 -3.975948,-3.975948 0,-2.217142 1.758692,-4.040018 3.975948,-4.040018 0.822618,0 1.578477,0.254704 2.208796,0.684014 l -2.059157,1.638785 5.956626,1.10441 v -5.849692 z" />
  <path
     inkscape:connector-curvature="0"
     id="path4771"
     style="text-indent:0;text-transform:none;block-progression:tb;color:#000000;fill:#008000;stroke:#004000;stroke-width:0.44251913;stroke-miterlimit:4;stroke-opacity:1;stroke-dasharray:none"
     d="m 91.695199,98.158901 -2.080544,1.653035 c -1.094195,-0.91756 -2.49939,-1.474918 -4.025653,-1.474918 -3.449485,0 -6.284269,2.835012 -6.284269,6.284272 0,3.44948 2.835012,6.2202 6.284269,6.2202 2.704137,0 5.027962,-1.69969 5.906693,-4.09702 l -2.251548,-0.54863 c -0.602548,1.42091 -1.998873,2.40112 -3.655145,2.40112 -2.217142,0 -3.975948,-1.75869 -3.975948,-3.97595 0,-2.21714 1.758692,-4.04001 3.975948,-4.04001 0.822618,0 1.578477,0.2547 2.208796,0.68401 l -2.059157,1.63879 5.956626,1.1044 v -5.849687 z" />
  <path
     inkscape:connector-curvature="0"
     id="path4763"
     style="text-indent:0;text-transform:none;block-progression:tb;color:#000000;fill:#008000;stroke:#004000;stroke-width:0.44251913;stroke-miterlimit:4;stroke-opacity:1;stroke-dasharray:none"
     d="m 110.6952,3.1589006 -2.08054,1.653035 c -1.0942,-0.9175599 -2.4994,-1.4749177 -4.02566,-1.4749177 -3.44948,0 -6.284267,2.8350121 -6.284267,6.2842692 0,3.4494859 2.835007,6.2201999 6.284267,6.2201999 2.70414,0 5.02796,-1.699685 5.90669,-4.097018 l -2.25154,-0.548626 c -0.60255,1.420904 -1.99888,2.401119 -3.65515,2.401119 -2.21714,0 -3.97595,-1.758692 -3.97595,-3.9759483 0,-2.2171421 1.7587,-4.0400178 3.97595,-4.0400178 0.82262,0 1.57848,0.2547041 2.2088,0.6840144 l -2.05916,1.6387847 5.95663,1.1044099 v -5.849692 z" />
  <path
     id="path4765"
     d="m 103.31617,1.2208676 c 0.38588,0 0.77448,0.048942 0.96742,0.1441083 0.38589,0.1930509 0.76905,0.5764333 0.95928,0.959816 0.19294,0.3861017 0.19294,0.5845905 0,0.9706921 -0.19023,0.3833827 -0.95928,0.7667652 -0.95928,0.959816 0,0.3833826 0.57611,0.959816 0.95928,0.959816 h 3.84795 v 3.858297 c 0,0.3833825 0.58426,0.959815 0.96742,0.959815 0.19294,0 0.57611,-0.7694828 0.95927,-0.959815 0.38589,-0.1930507 0.58426,-0.1930507 0.97015,0 0.38316,0.1903322 0.76633,0.573714 0.95927,0.959815 0.19294,0.383383 0.19294,1.541688 0,1.92779 -0.19294,0.386101 -0.57611,0.766765 -0.95927,0.959817 -0.38589,0.19305 -0.58426,0.19305 -0.97015,0 -0.38316,-0.193052 -0.76633,-0.959817 -0.95927,-0.959817 -0.38316,0 -0.96742,0.576434 -0.96742,0.959817 v 3.858297 h -3.84795 c -0.38317,0 -0.95928,-0.573714 -0.95928,-0.959818 0,-0.19305 0.76905,-0.58459 0.95928,-0.967972 0.19294,-0.386102 0.19294,-0.576432 0,-0.959817 -0.19023,-0.386099 -0.57339,-0.77764 -0.95928,-0.97069 -0.38316,-0.193052 -1.54081,-0.193052 -1.92669,0 -0.38588,0.19305 -0.77448,0.584591 -0.96742,0.97069 -0.19294,0.383385 -0.19294,0.573715 0,0.959817 0.19294,0.383382 0.96742,0.774922 0.96742,0.967972 0,0.386104 -0.58426,0.959818 -0.96742,0.959818 h -3.847958 v -3.858297 c 0,-0.0083 -0.0082,-0.01632 -0.0082,-0.02446 0.02446,-0.386101 0.589694,-0.935345 0.967424,-0.935345 0.192941,0 0.576106,0.766766 0.959271,0.959816 0.385882,0.193051 0.584263,0.193051 0.970143,0 0.38316,-0.19305 0.76633,-0.573714 0.95927,-0.959816 0.19294,-0.386101 0.19294,-1.544406 0,-1.927789 -0.19295,-0.38611 -0.57611,-0.7694912 -0.95928,-0.9598234 -0.38588,-0.1930507 -0.584256,-0.1930507 -0.970138,0 -0.383165,0.1903322 -0.76633,0.9598154 -0.959271,0.9598154 -0.37773,0 -0.945684,-0.5492415 -0.967424,-0.9353444 0,-0.00812 0.0082,-0.016313 0.0082,-0.02447 V 5.215116 h 3.847953 c 0.38317,0 0.96743,-0.5764334 0.96743,-0.959816 0,-0.1930508 -0.77449,-0.5764333 -0.96743,-0.959816 -0.19294,-0.3861016 -0.19294,-0.5845904 0,-0.9706921 0.19295,-0.3833827 0.58155,-0.7667651 0.96743,-0.959816 0.19294,-0.095166 0.57339,-0.1441083 0.95927,-0.1441083 z"
     inkscape:connector-curvature="0"
     style="opacity:0.8;fill:#dbe2e3;fill-opacity:1;fill-rule:evenodd;stroke:#586c70;stroke-width:0.44173506;stroke-miterlimit:4;stroke-opacity:1;stroke-dasharray:none" />
  <use
     clip-path="url(#clipPath3027)"
     height="19"
     width="19"
     id="use4767"
     xlink:href="#path3768"
     y="0"
     x="0"
     transform="translate(95,0)" />
  <path
     inkscape:connector-curvature="0"
     id="path4755"
     style="text-indent:0;text-transform:none;block-progression:tb;color:#000000;fill:#008000;stroke:#004000;stroke-width:0.44251913;stroke-miterlimit:4;stroke-opacity:1;stroke-dasharray:none"
     d="m 110.6952,22.158901 -2.08054,1.653035 c -1.0942,-0.91756 -2.4994,-1.474918 -4.02566,-1.474918 -3.44948,0 -6.284267,2.835012 -6.284267,6.284269 0,3.449486 2.835007,6.2202 6.284267,6.2202 2.70414,0 5.02796,-1.699685 5.90669,-4.097018 l -2.25154,-0.548626 c -0.60255,1.420904 -1.99888,2.401119 -3.65515,2.401119 -2.21714,0 -3.97595,-1.758692 -3.97595,-3.975948 0,-2.217142 1.7587,-4.040018 3.97595,-4.040018 0.82262,0 1.57848,0.254704 2.2088,0.684014 l -2.05916,1.638785 5.95663,1.10441 v -5.849692 z" />
  <path
     id="path4757"
     d="m 103.31617,20.220868 c 0.38588,0 0.77448,0.04894 0.96742,0.144108 0.38589,0.193051 0.76905,0.576433 0.95928,0.959816 0.19294,0.386102 0.19294,0.58459 0,0.970692 -0.19023,0.383383 -0.95928,0.766765 -0.95928,0.959816 0,0.383383 0.57611,0.959816 0.95928,0.959816 h 3.84795 v 3.858297 c 0,0.383382 0.58426,0.959815 0.96742,0.959815 0.19294,0 0.57611,-0.769483 0.95927,-0.959815 0.38589,-0.193051 0.58426,-0.193051 0.97015,0 0.38316,0.190332 0.76633,0.573714 0.95927,0.959815 0.19294,0.383383 0.19294,1.541688 0,1.92779 -0.19294,0.386101 -0.57611,0.766765 -0.95927,0.959817 -0.38589,0.19305 -0.58426,0.19305 -0.97015,0 -0.38316,-0.193052 -0.76633,-0.959817 -0.95927,-0.959817 -0.38316,0 -0.96742,0.576434 -0.96742,0.959817 v 3.858297 h -3.84795 c -0.38317,0 -0.95928,-0.573714 -0.95928,-0.959818 0,-0.19305 0.76905,-0.58459 0.95928,-0.967972 0.19294,-0.386102 0.19294,-0.576432 0,-0.959817 -0.19023,-0.386099 -0.57339,-0.77764 -0.95928,-0.97069 -0.38316,-0.193052 -1.54081,-0.193052 -1.92669,0 -0.38588,0.19305 -0.77448,0.584591 -0.96742,0.97069 -0.19294,0.383385 -0.19294,0.573715 0,0.959817 0.19294,0.383382 0.96742,0.774922 0.96742,0.967972 0,0.386104 -0.58426,0.959818 -0.96742,0.959818 h -3.847958 v -3.858297 c 0,-0.0083 -0.0082,-0.01632 -0.0082,-0.02446 0.02446,-0.386101 0.589694,-0.935345 0.967424,-0.935345 0.192941,0 0.576106,0.766766 0.959271,0.959816 0.385882,0.193051 0.584263,0.193051 0.970143,0 0.38316,-0.19305 0.76633,-0.573714 0.95927,-0.959816 0.19294,-0.386101 0.19294,-1.544406 0,-1.927789 -0.19295,-0.38611 -0.57611,-0.769491 -0.95928,-0.959823 -0.38588,-0.193051 -0.584256,-0.193051 -0.970138,0 -0.383165,0.190332 -0.76633,0.959815 -0.959271,0.959815 -0.37773,0 -0.945684,-0.549242 -0.967424,-0.935344 0,-0.0081 0.0082,-0.01631 0.0082,-0.02447 v -3.858303 h 3.847953 c 0.38317,0 0.96743,-0.576433 0.96743,-0.959816 0,-0.193051 -0.77449,-0.576433 -0.96743,-0.959816 -0.19294,-0.386102 -0.19294,-0.58459 0,-0.970692 0.19295,-0.383383 0.58155,-0.766765 0.96743,-0.959816 0.19294,-0.09517 0.57339,-0.144108 0.95927,-0.144108 z"
     inkscape:connector-curvature="0"
     style="opacity:0.56000001;fill:#dbe2e3;fill-opacity:1;fill-rule:evenodd;stroke:#586c70;stroke-width:0.44173506;stroke-miterlimit:4;stroke-opacity:1;stroke-dasharray:none" />
  <use
     clip-path="url(#clipPath3027)"
     height="19"
     width="19"
     id="use4759"
     xlink:href="#path3768"
     y="0"
     x="0"
     transform="translate(95,19)" />
  <path
     inkscape:connector-curvature="0"
     id="path4747"
     style="text-indent:0;text-transform:none;block-progression:tb;color:#000000;fill:#008000;stroke:#004000;stroke-width:0.44251913;stroke-miterlimit:4;stroke-opacity:1;stroke-dasharray:none"
     d="m 110.6952,41.158901 -2.08054,1.653035 c -1.0942,-0.91756 -2.4994,-1.474918 -4.02566,-1.474918 -3.44948,0 -6.284267,2.835012 -6.284267,6.284269 0,3.449486 2.835007,6.2202 6.284267,6.2202 2.70414,0 5.02796,-1.699685 5.90669,-4.097018 l -2.25154,-0.548626 c -0.60255,1.420904 -1.99888,2.401119 -3.65515,2.401119 -2.21714,0 -3.97595,-1.758692 -3.97595,-3.975948 0,-2.217142 1.7587,-4.040018 3.97595,-4.040018 0.82262,0 1.57848,0.254704 2.2088,0.684014 l -2.05916,1.638785 5.95663,1.10441 v -5.849692 z" />
  <path
     id="path4749"
     d="m 103.31617,39.220868 c 0.38588,0 0.77448,0.04894 0.96742,0.144108 0.38589,0.193051 0.76905,0.576433 0.95928,0.959816 0.19294,0.386102 0.19294,0.58459 0,0.970692 -0.19023,0.383383 -0.95928,0.766765 -0.95928,0.959816 0,0.383383 0.57611,0.959816 0.95928,0.959816 h 3.84795 v 3.858297 c 0,0.383382 0.58426,0.959815 0.96742,0.959815 0.19294,0 0.57611,-0.769483 0.95927,-0.959815 0.38589,-0.193051 0.58426,-0.193051 0.97015,0 0.38316,0.190332 0.76633,0.573714 0.95927,0.959815 0.19294,0.383383 0.19294,1.541688 0,1.92779 -0.19294,0.386101 -0.57611,0.766765 -0.95927,0.959817 -0.38589,0.19305 -0.58426,0.19305 -0.97015,0 -0.38316,-0.193052 -0.76633,-0.959817 -0.95927,-0.959817 -0.38316,0 -0.96742,0.576434 -0.96742,0.959817 v 3.858297 h -3.84795 c -0.38317,0 -0.95928,-0.573714 -0.95928,-0.959818 0,-0.19305 0.76905,-0.58459 0.95928,-0.967972 0.19294,-0.386102 0.19294,-0.576432 0,-0.959817 -0.19023,-0.386099 -0.57339,-0.77764 -0.95928,-0.97069 -0.38316,-0.193052 -1.54081,-0.193052 -1.92669,0 -0.38588,0.19305 -0.77448,0.584591 -0.96742,0.97069 -0.19294,0.383385 -0.19294,0.573715 0,0.959817 0.19294,0.383382 0.96742,0.774922 0.96742,0.967972 0,0.386104 -0.58426,0.959818 -0.96742,0.959818 h -3.847958 v -3.858297 c 0,-0.0083 -0.0082,-0.01632 -0.0082,-0.02446 0.02446,-0.386101 0.589694,-0.935345 0.967424,-0.935345 0.192941,0 0.576106,0.766766 0.959271,0.959816 0.385882,0.193051 0.584263,0.193051 0.970143,0 0.38316,-0.19305 0.76633,-0.573714 0.95927,-0.959816 0.19294,-0.386101 0.19294,-1.544406 0,-1.927789 -0.19295,-0.38611 -0.57611,-0.769491 -0.95928,-0.959823 -0.38588,-0.193051 -0.584256,-0.193051 -0.970138,0 -0.383165,0.190332 -0.76633,0.959815 -0.959271,0.959815 -0.37773,0 -0.945684,-0.549241 -0.967424,-0.935344 0,-0.0081 0.0082,-0.01631 0.0082,-0.02447 v -3.858303 h 3.847953 c 0.38317,0 0.96743,-0.576433 0.96743,-0.959816 0,-0.193051 -0.77449,-0.576433 -0.96743,-0.959816 -0.19294,-0.386102 -0.19294,-0.58459 0,-0.970692 0.19295,-0.383383 0.58155,-0.766765 0.96743,-0.959816 0.19294,-0.09517 0.57339,-0.144108 0.95927,-0.144108 z"
     inkscape:connector-curvature="0"
     style="opacity:0.32000002;fill:#dbe2e3;fill-opacity:1;fill-rule:evenodd;stroke:#586c70;stroke-width:0.44173506;stroke-miterlimit:4;stroke-opacity:1;stroke-dasharray:none" />
  <use
     clip-path="url(#clipPath3027)"
     height="19"
     width="19"
     id="use4751"
     xlink:href="#path3768"
     y="0"
     x="0"
     transform="translate(95,38)" />
  <path
     inkscape:connector-curvature="0"
     id="path4739"
     style="text-indent:0;text-transform:none;block-progression:tb;color:#000000;fill:#008000;stroke:#004000;stroke-width:0.44251913;stroke-miterlimit:4;stroke-opacity:1;stroke-dasharray:none"
     d="m 110.6952,60.158901 -2.08054,1.653035 c -1.0942,-0.91756 -2.4994,-1.474918 -4.02566,-1.474918 -3.44948,0 -6.284267,2.835012 -6.284267,6.284269 0,3.449486 2.835007,6.2202 6.284267,6.2202 2.70414,0 5.02796,-1.699685 5.90669,-4.097018 l -2.25154,-0.548626 c -0.60255,1.420904 -1.99888,2.401119 -3.65515,2.401119 -2.21714,0 -3.97595,-1.758692 -3.97595,-3.975948 0,-2.217142 1.7587,-4.040018 3.97595,-4.040018 0.82262,0 1.57848,0.254704 2.2088,0.684014 l -2.05916,1.638785 5.95663,1.10441 v -5.849692 z" />
  <path
     id="path4741"
     d="m 103.31617,58.220868 c 0.38588,0 0.77448,0.04894 0.96742,0.144108 0.38589,0.193051 0.76905,0.576433 0.95928,0.959816 0.19294,0.386102 0.19294,0.58459 0,0.970692 -0.19023,0.383383 -0.95928,0.766765 -0.95928,0.959816 0,0.383383 0.57611,0.959816 0.95928,0.959816 h 3.84795 v 3.858297 c 0,0.383382 0.58426,0.959815 0.96742,0.959815 0.19294,0 0.57611,-0.769483 0.95927,-0.959815 0.38589,-0.193051 0.58426,-0.193051 0.97015,0 0.38316,0.190332 0.76633,0.573714 0.95927,0.959815 0.19294,0.383383 0.19294,1.541688 0,1.92779 -0.19294,0.386101 -0.57611,0.766765 -0.95927,0.959817 -0.38589,0.19305 -0.58426,0.19305 -0.97015,0 -0.38316,-0.193052 -0.76633,-0.959817 -0.95927,-0.959817 -0.38316,0 -0.96742,0.576434 -0.96742,0.959817 v 3.858297 h -3.84795 c -0.38317,0 -0.95928,-0.573714 -0.95928,-0.959818 0,-0.19305 0.76905,-0.58459 0.95928,-0.967972 0.19294,-0.386102 0.19294,-0.576432 0,-0.959817 -0.19023,-0.386099 -0.57339,-0.77764 -0.95928,-0.97069 -0.38316,-0.193052 -1.54081,-0.193052 -1.92669,0 -0.38588,0.19305 -0.77448,0.584591 -0.96742,0.97069 -0.19294,0.383385 -0.19294,0.573715 0,0.959817 0.19294,0.383382 0.96742,0.774922 0.96742,0.967972 0,0.386104 -0.58426,0.959818 -0.96742,0.959818 h -3.847958 v -3.858297 c 0,-0.0083 -0.0082,-0.01632 -0.0082,-0.02446 0.02446,-0.386101 0.589694,-0.935345 0.967424,-0.935345 0.192941,0 0.576106,0.766766 0.959271,0.959816 0.385882,0.193051 0.584263,0.193051 0.970143,0 0.38316,-0.19305 0.76633,-0.573714 0.95927,-0.959816 0.19294,-0.386101 0.19294,-1.544406 0,-1.927789 -0.19295,-0.38611 -0.57611,-0.769491 -0.95928,-0.959823 -0.38588,-0.193051 -0.584256,-0.193051 -0.970138,0 -0.383165,0.190332 -0.76633,0.959815 -0.959271,0.959815 -0.37773,0 -0.945684,-0.549241 -0.967424,-0.935344 0,-0.0081 0.0082,-0.01631 0.0082,-0.02447 v -3.858303 h 3.847953 c 0.38317,0 0.96743,-0.576433 0.96743,-0.959816 0,-0.193051 -0.77449,-0.576433 -0.96743,-0.959816 -0.19294,-0.386102 -0.19294,-0.58459 0,-0.970692 0.19295,-0.383383 0.58155,-0.766765 0.96743,-0.959816 0.19294,-0.09517 0.57339,-0.144108 0.95927,-0.144108 z"
     inkscape:connector-curvature="0"
     style="opacity:0.07999998;fill:#dbe2e3;fill-opacity:1;fill-rule:evenodd;stroke:#586c70;stroke-width:0.44173506;stroke-miterlimit:4;stroke-opacity:1;stroke-dasharray:none" />
  <use
     clip-path="url(#clipPath3027)"
     height="19"
     width="19"
     id="use4743"
     xlink:href="#path3768"
     y="0"
     x="0"
     transform="translate(95,57)" />
  <path
     inkscape:connector-curvature="0"
     id="path4731"
     style="text-indent:0;text-transform:none;block-progression:tb;color:#000000;fill:#008000;stroke:#004000;stroke-width:0.44251913;stroke-miterlimit:4;stroke-opacity:1;stroke-dasharray:none"
     d="m 110.6952,79.158901 -2.08054,1.653035 c -1.0942,-0.91756 -2.4994,-1.474918 -4.02566,-1.474918 -3.44948,0 -6.284267,2.835012 -6.284267,6.284269 0,3.449486 2.835007,6.2202 6.284267,6.2202 2.70414,0 5.02796,-1.699685 5.90669,-4.097018 l -2.25154,-0.548626 c -0.60255,1.420904 -1.99888,2.401119 -3.65515,2.401119 -2.21714,0 -3.97595,-1.758692 -3.97595,-3.975948 0,-2.217142 1.7587,-4.040018 3.97595,-4.040018 0.82262,0 1.57848,0.254704 2.2088,0.684014 l -2.05916,1.638785 5.95663,1.10441 v -5.849692 z" />
  <path
     inkscape:connector-curvature="0"
     id="path4723"
     style="text-indent:0;text-transform:none;block-progression:tb;color:#000000;fill:#008000;stroke:#004000;stroke-width:0.44251913;stroke-miterlimit:4;stroke-opacity:1;stroke-dasharray:none"
     d="m 110.6952,98.158901 -2.08054,1.653035 c -1.0942,-0.91756 -2.4994,-1.474918 -4.02566,-1.474918 -3.44948,0 -6.284267,2.835012 -6.284267,6.284272 0,3.44948 2.835007,6.2202 6.284267,6.2202 2.70414,0 5.02796,-1.69969 5.90669,-4.09702 l -2.25154,-0.54863 c -0.60255,1.42091 -1.99888,2.40112 -3.65515,2.40112 -2.21714,0 -3.97595,-1.75869 -3.97595,-3.97595 0,-2.21714 1.7587,-4.04001 3.97595,-4.04001 0.82262,0 1.57848,0.2547 2.2088,0.68401 l -2.05916,1.63879 5.95663,1.1044 v -5.849687 z" />
</svg>
