<?xml version="1.0" encoding="UTF-8" standalone="no"?>
<svg
   xmlns:dc="http://purl.org/dc/elements/1.1/"
   xmlns:cc="http://creativecommons.org/ns#"
   xmlns:rdf="http://www.w3.org/1999/02/22-rdf-syntax-ns#"
   xmlns:svg="http://www.w3.org/2000/svg"
   xmlns="http://www.w3.org/2000/svg"
   xmlns:xlink="http://www.w3.org/1999/xlink"
   xmlns:sodipodi="http://sodipodi.sourceforge.net/DTD/sodipodi-0.dtd"
   xmlns:inkscape="http://www.inkscape.org/namespaces/inkscape"
   id="svg2"
   height="19"
   width="19"
   version="1.1"
   inkscape:version="0.48.4 r9939"
   sodipodi:docname="rejig.svg"
   inkscape:export-filename="/home/stuart/Projects/stuartpb/rejig/rejig-19.png"
   inkscape:export-xdpi="90"
   inkscape:export-ydpi="90">
  <metadata
     id="metadata9">
    <rdf:RDF>
      <cc:Work
         rdf:about="">
        <dc:format>image/svg+xml</dc:format>
        <dc:type
           rdf:resource="http://purl.org/dc/dcmitype/StillImage" />
        <dc:title></dc:title>
      </cc:Work>
    </rdf:RDF>
  </metadata>
  <defs
     id="defs72">
    <clipPath
       clipPathUnits="userSpaceOnUse"
       id="clipPath3027">
      <path
         sodipodi:type="arc"
         style="fill:#000000;fill-opacity:1;stroke:none"
         id="path3029"
         sodipodi:cx="9.5"
         sodipodi:cy="9.5"
         sodipodi:rx="9.5"
         sodipodi:ry="9.5"
         d="M 0.24959878,11.663349 A 9.5,9.5 0 1 1 18.772386,11.567089 L 9.5,9.5 z"
         sodipodi:start="2.9118562"
         sodipodi:end="6.5025282" />
    </clipPath>
  </defs>
  <sodipodi:namedview
     pagecolor="#ffffff"
     bordercolor="#666666"
     borderopacity="1"
     objecttolerance="10"
     gridtolerance="10"
     guidetolerance="10"
     inkscape:pageopacity="0"
     inkscape:pageshadow="2"
     inkscape:window-width="1680"
     inkscape:window-height="998"
     id="namedview70"
     showgrid="false"
     fit-margin-top="0"
     fit-margin-left="0"
     fit-margin-right="0"
     fit-margin-bottom="0"
     inkscape:snap-page="true"
     inkscape:snap-bbox="true"
     showborder="false"
     inkscape:showpageshadow="false"
     inkscape:zoom="8"
     inkscape:cx="1.688814"
     inkscape:cy="2.2144974"
     inkscape:window-x="-2"
     inkscape:window-y="-3"
     inkscape:window-maximized="1"
     inkscape:current-layer="svg2"
     inkscape:snap-center="true"
     inkscape:snap-object-midpoints="false"
     inkscape:snap-bbox-midpoints="true"
     inkscape:bbox-paths="false" />
  <path
     d="m 15.695199,3.1589006 -2.080544,1.653035 C 12.52046,3.8943757 11.115265,3.3370179 9.5890017,3.3370179 c -3.449485,0 -6.2842691,2.8350121 -6.2842691,6.2842692 0,3.4494859 2.8350121,6.2201999 6.2842691,6.2201999 2.7041373,0 5.0279623,-1.699685 5.9066933,-4.097018 l -2.251548,-0.548626 c -0.602548,1.420904 -1.998873,2.401119 -3.6551453,2.401119 -2.2171417,0 -3.9759482,-1.758692 -3.9759482,-3.9759483 0,-2.2171421 1.7586925,-4.0400178 3.9759482,-4.0400178 0.8226183,0 1.5784773,0.2547041 2.2087963,0.6840144 L 9.7386413,7.903795 15.695267,9.0082049 v -5.849692 z"
     style="text-indent:0;text-transform:none;block-progression:tb;color:#000000;fill:#008000;stroke:#004000;stroke-width:0.44251913;stroke-miterlimit:4;stroke-opacity:1;stroke-dasharray:none"
     id="path3768"
     inkscape:connector-curvature="0" />
  <path
     style="fill:#dbe2e3;fill-opacity:1;fill-rule:evenodd;stroke:#586c70;stroke-width:0.44173506;stroke-miterlimit:4;stroke-opacity:1;stroke-dasharray:none"
     inkscape:connector-curvature="0"
     d="m 8.3161708,1.2208676 c 0.3858826,0 0.7744827,0.048942 0.9674238,0.1441083 0.3858822,0.1930509 0.7690474,0.5764333 0.9592714,0.959816 0.19294,0.3861017 0.19294,0.5845905 0,0.9706921 -0.190224,0.3833827 -0.9592714,0.7667652 -0.9592714,0.959816 0,0.3833826 0.5761059,0.959816 0.9592714,0.959816 h 3.847953 v 3.858297 c 0,0.3833825 0.58426,0.959815 0.967425,0.959815 0.192939,0 0.576104,-0.7694828 0.95927,-0.959815 0.385882,-0.1930507 0.584258,-0.1930507 0.970141,0 0.383166,0.1903322 0.76633,0.573714 0.959271,0.959815 0.192942,0.383383 0.192942,1.541688 0,1.92779 -0.192941,0.386101 -0.576105,0.766765 -0.959271,0.959817 -0.385883,0.19305 -0.584259,0.19305 -0.970141,0 -0.383166,-0.193052 -0.766331,-0.959817 -0.95927,-0.959817 -0.383165,0 -0.967425,0.576434 -0.967425,0.959817 v 3.858297 h -3.847953 c -0.3831655,0 -0.9592714,-0.573714 -0.9592714,-0.959818 0,-0.19305 0.7690474,-0.58459 0.9592714,-0.967972 0.19294,-0.386102 0.19294,-0.576432 0,-0.959817 -0.190224,-0.386099 -0.5733892,-0.77764 -0.9592714,-0.97069 -0.383165,-0.193052 -1.5408123,-0.193052 -1.9266947,0 -0.3858823,0.19305 -0.7744823,0.584591 -0.9674233,0.97069 -0.1929412,0.383385 -0.1929412,0.573715 0,0.959817 0.192941,0.383382 0.9674233,0.774922 0.9674233,0.967972 0,0.386104 -0.5842586,0.959818 -0.9674233,0.959818 H 2.5415224 v -3.858297 c 0,-0.0083 -0.00815,-0.01632 -0.00815,-0.02446 0.024457,-0.386101 0.5896936,-0.935345 0.9674234,-0.935345 0.1929412,0 0.576106,0.766766 0.9592711,0.959816 0.3858823,0.193051 0.5842584,0.193051 0.9701409,0 0.383165,-0.19305 0.7663299,-0.573714 0.9592712,-0.959816 0.192941,-0.386101 0.192941,-1.544406 0,-1.927789 C 6.1965328,9.647131 5.8133679,9.2637498 5.4302029,9.0734176 5.0443205,8.8803669 4.8459444,8.8803669 4.4600621,9.0734176 4.076897,9.2637498 3.6937322,10.033233 3.500791,10.033233 c -0.3777299,0 -0.9456837,-0.5492415 -0.9674235,-0.9353444 0,-0.00812 0.00815,-0.016313 0.00815,-0.02447 V 5.215116 h 3.8479543 c 0.3831646,0 0.9674234,-0.5764334 0.9674234,-0.959816 0,-0.1930508 -0.7744824,-0.5764333 -0.9674234,-0.959816 -0.1929412,-0.3861016 -0.1929412,-0.5845904 0,-0.9706921 C 6.5824176,1.9414092 6.9710176,1.5580268 7.3568999,1.3649759 7.5498412,1.2698101 7.9302886,1.2208676 8.3161708,1.2208676 z"
     id="path3148" />
  <use
     x="0"
     y="0"
     xlink:href="#path3768"
     id="use2991"
     width="19"
     height="19"
     clip-path="url(#clipPath3027)" />
</svg>
