<?xml version="1.0" encoding="UTF-8" standalone="no"?>
<svg
   xmlns:dc="http://purl.org/dc/elements/1.1/"
   xmlns:cc="http://creativecommons.org/ns#"
   xmlns:rdf="http://www.w3.org/1999/02/22-rdf-syntax-ns#"
   xmlns:svg="http://www.w3.org/2000/svg"
   xmlns="http://www.w3.org/2000/svg"
   xmlns:sodipodi="http://sodipodi.sourceforge.net/DTD/sodipodi-0.dtd"
   xmlns:inkscape="http://www.inkscape.org/namespaces/inkscape"
   id="svg2"
   height="19"
   width="19"
   version="1.1"
   inkscape:version="0.48.4 r9939"
   sodipodi:docname="yuri1969_All_jigsaw_-_12mm.svg">
  <defs
     id="defs72" />
  <sodipodi:namedview
     pagecolor="#ffffff"
     bordercolor="#666666"
     borderopacity="1"
     objecttolerance="10"
     gridtolerance="10"
     guidetolerance="10"
     inkscape:pageopacity="0"
     inkscape:pageshadow="2"
     inkscape:window-width="1680"
     inkscape:window-height="998"
     id="namedview70"
     showgrid="false"
     fit-margin-top="0"
     fit-margin-left="0"
     fit-margin-right="0"
     fit-margin-bottom="0"
     inkscape:snap-page="true"
     inkscape:snap-bbox="true"
     showborder="false"
     inkscape:showpageshadow="false"
     inkscape:zoom="1"
     inkscape:cx="24.629239"
     inkscape:cy="-39.235732"
     inkscape:window-x="-2"
     inkscape:window-y="-3"
     inkscape:window-maximized="1"
     inkscape:current-layer="svg2" />
  <g
     id="layer1"
     transform="matrix(0.27020145,0,0,0.27020145,-91.600526,-82.612207)"
     style="fill:#008000;stroke:#004000;stroke-width:1.94083213999999993;stroke-miterlimit:4;stroke-dasharray:none;stroke-opacity:1">
    <path
       inkscape:connector-curvature="0"
       id="path3768"
       style="text-indent:0;text-transform:none;block-progression:tb;color:#000000;fill:#008000;stroke:#004000;stroke-width:1.94083213999999993;stroke-miterlimit:4;stroke-dasharray:none;stroke-opacity:1"
       d="m 399.28,314.12 -9.125,7.25 c -4.799,-4.0243 -10.962,-6.4688 -17.656,-6.4688 -15.129,0 -27.562,12.434 -27.562,27.562 0,15.129 12.434,27.281 27.562,27.281 11.86,0 22.052,-7.4546 25.906,-17.969 l -9.875,-2.4062 c -2.6427,6.2319 -8.7668,10.531 -16.031,10.531 -9.7241,0 -17.438,-7.7134 -17.438,-17.438 0,-9.7241 7.7134,-17.719 17.438,-17.719 3.6079,0 6.923,1.1171 9.6875,3 l -9.0312,7.1875 26.125,4.8438 v -25.656 z" />
  </g>
  <path
     style="fill:#dbe2e3;fill-opacity:1;fill-rule:evenodd;stroke:#586c70;stroke-width:0.52441567000000000;stroke-miterlimit:4;stroke-dasharray:none;stroke-opacity:1"
     inkscape:connector-curvature="0"
     d="m 7.1293385,0.26745131 c 0.4582392,0 0.9197054,0.0580864 1.1488248,0.17103293 0.458239,0.22911952 0.9132511,0.68413146 1.1391435,1.13914346 0.2291192,0.4582391 0.2291192,0.6938128 0,1.1520517 -0.2258924,0.4550121 -1.1391435,0.910024 -1.1391435,1.1391435 0,0.455012 0.6841314,1.1391435 1.1391435,1.1391435 h 4.5694822 v 4.5791631 c 0,0.4550125 0.693813,1.1391435 1.148825,1.1391435 0.229118,0 0.684131,-0.9132504 1.139143,-1.1391435 0.458239,-0.2291193 0.693812,-0.2291193 1.152051,0 0.455013,0.2258931 0.910025,0.6809045 1.139145,1.1391435 0.229119,0.455013 0.229119,1.82973 0,2.287969 -0.22912,0.458239 -0.684132,0.910023 -1.139145,1.139143 -0.458239,0.22912 -0.693812,0.22912 -1.152051,0 -0.455012,-0.22912 -0.910025,-1.139143 -1.139143,-1.139143 -0.455012,0 -1.148825,0.684132 -1.148825,1.139143 v 4.579164 H 9.4173068 c -0.4550121,0 -1.1391435,-0.680904 -1.1391435,-1.139145 0,-0.229118 0.9132511,-0.693812 1.1391435,-1.148824 0.2291192,-0.458239 0.2291192,-0.68413 0,-1.139144 -0.2258924,-0.458237 -0.6809045,-0.922931 -1.1391435,-1.152051 -0.455012,-0.22912 -1.8297291,-0.22912 -2.2879683,0 -0.4582389,0.22912 -0.919705,0.693814 -1.1488244,1.152051 -0.2291196,0.455014 -0.2291196,0.680905 0,1.139144 0.2291194,0.455012 1.1488244,0.919706 1.1488244,1.148824 0,0.458241 -0.6938125,1.139145 -1.1488244,1.139145 H 0.27188839 v -4.579164 c 0,-0.0098 -0.00968,-0.01936 -0.00968,-0.02904 0.0290433,-0.458239 0.70026675,-1.1101 1.14882451,-1.1101 0.2291195,0 0.6841314,0.910023 1.1391435,1.139143 0.458239,0.22912 0.6938126,0.22912 1.1520517,0 0.4550121,-0.22912 0.910024,-0.680904 1.1391436,-1.139143 0.2291194,-0.458239 0.2291194,-1.832956 0,-2.287969 C 4.6122514,10.268037 4.1572394,9.8130257 3.7022274,9.5871326 c -0.4582391,-0.2291193 -0.6938126,-0.2291193 -1.1520516,0 -0.4550121,0.2258931 -0.910024,1.1391434 -1.1391435,1.1391434 -0.44855786,0 -1.12300831,-0.651859 -1.1488246,-1.1101002 0,-0.00965 0.00968,-0.019361 0.00968,-0.029042 V 5.0079664 H 4.84137 c 0.4550118,0 1.1488245,-0.6841315 1.1488245,-1.1391435 0,-0.2291195 -0.9197051,-0.6841314 -1.1488245,-1.1391435 -0.2291196,-0.4582389 -0.2291196,-0.6938126 0,-1.1520517 C 5.07049,1.1226157 5.5319561,0.66760376 5.990195,0.43848424 6.2193146,0.325538 6.6710996,0.26745131 7.1293385,0.26745131 z"
     id="path3148" />
  <metadata
     id="metadata68">
    <rdf:RDF>
      <cc:Work>
        <dc:format>image/svg+xml</dc:format>
        <dc:type
           rdf:resource="http://purl.org/dc/dcmitype/StillImage" />
        <cc:license
           rdf:resource="http://creativecommons.org/licenses/publicdomain/" />
        <dc:publisher>
          <cc:Agent
             rdf:about="http://openclipart.org/">
            <dc:title>Openclipart</dc:title>
          </cc:Agent>
        </dc:publisher>
        <dc:title></dc:title>
        <dc:date>2007-11-06T15:53:38</dc:date>
        <dc:description>clip art, clipart, image, jigsaw, jigsaw, media, png, public domain, puzzle, puzzle, svg, </dc:description>
        <dc:source>http://openclipart.org/detail/8004/all-jigsaw---12mm-by-yuri1969</dc:source>
        <dc:creator>
          <cc:Agent>
            <dc:title>yuri1969</dc:title>
          </cc:Agent>
        </dc:creator>
        <dc:subject>
          <rdf:Bag>
            <rdf:li>clip art</rdf:li>
            <rdf:li>clipart</rdf:li>
            <rdf:li>image</rdf:li>
            <rdf:li>jigsaw</rdf:li>
            <rdf:li>media</rdf:li>
            <rdf:li>png</rdf:li>
            <rdf:li>public domain</rdf:li>
            <rdf:li>puzzle</rdf:li>
            <rdf:li>svg</rdf:li>
          </rdf:Bag>
        </dc:subject>
      </cc:Work>
      <cc:License
         rdf:about="http://creativecommons.org/licenses/publicdomain/">
        <cc:permits
           rdf:resource="http://creativecommons.org/ns#Reproduction" />
        <cc:permits
           rdf:resource="http://creativecommons.org/ns#Distribution" />
        <cc:permits
           rdf:resource="http://creativecommons.org/ns#DerivativeWorks" />
      </cc:License>
    </rdf:RDF>
  </metadata>
  <path
     style="text-indent:0;text-transform:none;block-progression:tb;color:#000000;fill:#008000;stroke:#004000;stroke-width:0.52441567000000000;stroke-linecap:round;stroke-miterlimit:4;stroke-dasharray:none;stroke-opacity:1"
     d="M 4.4740416,11.071953 C 4.3639151,10.649001 4.3213945,10.209714 4.3213945,9.9260878 c 0,-2.627466 2.0921401,-4.7852931 4.7197411,-4.7852931 0.9748604,0 1.8751074,0.3106372 2.6220784,0.8193995 l -2.4254226,1.9337828 7.0468356,1.3110392 0,-6.9485077 -2.458199,1.9665588 c -1.296697,-1.0873717 -2.976564,-1.737127 -4.7852924,-1.737127 -4.0878778,0 -7.4401475,3.3525399 -7.4401475,7.4401475 0,0.2779762 0.024266,0.7821962 0.1111221,1.2490622"
     id="path3892"
     inkscape:connector-curvature="0"
     sodipodi:nodetypes="csscccccssc" />
</svg>
